<svg xmlns="http://www.w3.org/2000/svg" xmlns:xlink="http://www.w3.org/1999/xlink" width="550" zoomAndPan="magnify" viewBox="0 0 412.5 374.999991" height="500" preserveAspectRatio="xMidYMid meet" version="1.0"><defs><clipPath id="fa7c2efc42"><path d="M 54 26 L 390.796875 26 L 390.796875 315 L 54 315 Z M 54 26 " clip-rule="nonzero"/></clipPath><clipPath id="4e4aa2b902"><path d="M 9.449219 5.6875 L 33.421875 5.6875 L 33.421875 25.910156 L 9.449219 25.910156 Z M 9.449219 5.6875 " clip-rule="nonzero"/></clipPath></defs><path fill="#caddff" d="M 41.148438 122.195312 C 33.273438 139.683594 21.621094 173.15625 26.304688 214.792969 C 32.316406 268.214844 62.070312 310.328125 91.015625 333.996094 C 187.0625 412.527344 362.886719 361.792969 386.171875 287.816406 C 390.394531 274.398438 389.207031 261.453125 387.746094 245.527344 C 383.097656 194.871094 358.617188 179.8125 342.152344 126.027344 C 327.167969 77.078125 341.941406 71.570312 327.929688 49.808594 C 297.53125 2.601562 209.792969 0.222656 149.421875 22.855469 C 126.234375 31.550781 69.960938 58.214844 41.148438 122.195312 " fill-opacity="1" fill-rule="nonzero"/><g clip-path="url(#fa7c2efc42)"><path fill="#db7803" d="M 386.242188 310.09375 L 383.273438 312.621094 C 381.597656 314.050781 379.359375 314.617188 377.203125 314.164062 L 55.519531 246.152344 L 54.042969 39.703125 C 54.007812 35.042969 56.4375 30.71875 60.433594 28.324219 C 63.269531 26.625 66.644531 26.054688 69.882812 26.730469 L 384.714844 92.414062 C 387.882812 93.074219 390.15625 95.871094 390.15625 99.109375 L 390.15625 301.617188 C 390.15625 304.878906 388.722656 307.980469 386.242188 310.09375 " fill-opacity="1" fill-rule="nonzero"/></g><path fill="#ffffff" d="M 377.054688 313.46875 L 54.644531 246.203125 L 54.644531 38.09375 C 54.644531 35.464844 57.0625 33.496094 59.636719 34.035156 L 374.511719 99.726562 C 377.679688 100.390625 379.953125 103.183594 379.953125 106.421875 L 379.953125 311.113281 C 379.953125 312.640625 378.550781 313.78125 377.054688 313.46875 " fill-opacity="1" fill-rule="nonzero"/><path fill="#000000" d="M 55.304688 245.667969 L 377.191406 312.820312 C 377.707031 312.929688 378.238281 312.800781 378.648438 312.464844 C 379.054688 312.132812 379.292969 311.640625 379.292969 311.113281 L 379.292969 106.421875 C 379.292969 103.511719 377.222656 100.96875 374.375 100.375 L 59.5 34.683594 C 58.46875 34.46875 57.410156 34.722656 56.59375 35.390625 C 55.773438 36.054688 55.304688 37.039062 55.304688 38.09375 Z M 377.550781 314.179688 C 377.339844 314.179688 377.132812 314.160156 376.917969 314.117188 L 53.984375 246.742188 L 53.984375 38.09375 C 53.984375 36.640625 54.632812 35.28125 55.757812 34.363281 C 56.886719 33.445312 58.347656 33.089844 59.773438 33.386719 L 374.648438 99.078125 C 378.105469 99.800781 380.613281 102.890625 380.613281 106.421875 L 380.613281 311.113281 C 380.613281 312.039062 380.203125 312.90625 379.484375 313.492188 C 378.925781 313.941406 378.246094 314.179688 377.550781 314.179688 " fill-opacity="1" fill-rule="nonzero"/><path fill="#ffffff" d="M 356.722656 289.464844 L 270.382812 272.597656 C 267.414062 272.019531 265.28125 269.402344 265.316406 266.378906 L 266.058594 200.40625 C 266.101562 196.492188 269.679688 193.574219 273.523438 194.328125 L 359.863281 211.191406 C 362.832031 211.773438 364.960938 214.390625 364.925781 217.414062 L 364.191406 283.386719 C 364.148438 287.300781 360.566406 290.214844 356.722656 289.464844 " fill-opacity="1" fill-rule="nonzero"/><path fill="#000000" d="M 272.316406 194.871094 C 271.039062 194.871094 269.792969 195.304688 268.785156 196.128906 C 267.492188 197.183594 266.738281 198.742188 266.71875 200.414062 L 265.984375 266.386719 C 265.949219 269.089844 267.855469 271.429688 270.511719 271.949219 L 356.851562 288.8125 C 358.488281 289.136719 360.171875 288.714844 361.464844 287.660156 C 362.761719 286.609375 363.511719 285.046875 363.53125 283.375 L 364.269531 217.402344 C 364.296875 214.699219 362.394531 212.359375 359.738281 211.839844 L 273.394531 194.972656 C 273.035156 194.90625 272.675781 194.871094 272.316406 194.871094 Z M 357.933594 290.242188 C 357.488281 290.242188 357.042969 290.199219 356.597656 290.113281 L 270.257812 273.246094 C 266.976562 272.605469 264.621094 269.714844 264.660156 266.371094 L 265.398438 200.398438 C 265.417969 198.335938 266.347656 196.40625 267.949219 195.101562 C 269.550781 193.800781 271.625 193.28125 273.648438 193.675781 L 359.992188 210.542969 C 363.273438 211.183594 365.628906 214.078125 365.59375 217.421875 L 364.855469 283.390625 C 364.832031 285.453125 363.898438 287.382812 362.300781 288.6875 C 361.054688 289.703125 359.511719 290.242188 357.933594 290.242188 " fill-opacity="1" fill-rule="nonzero"/><path fill="#caddff" d="M 354.769531 223.742188 C 354.675781 223.742188 354.578125 223.734375 354.480469 223.714844 L 275.761719 208.777344 C 274.925781 208.617188 274.375 207.8125 274.53125 206.972656 C 274.691406 206.136719 275.5 205.585938 276.339844 205.742188 L 355.054688 220.683594 C 355.894531 220.84375 356.445312 221.648438 356.285156 222.484375 C 356.144531 223.226562 355.496094 223.742188 354.769531 223.742188 " fill-opacity="1" fill-rule="nonzero"/><path fill="#db7803" d="M 354.769531 234.316406 C 354.675781 234.316406 354.578125 234.304688 354.480469 234.289062 L 339.960938 231.53125 C 339.125 231.371094 338.574219 230.566406 338.734375 229.730469 C 338.894531 228.890625 339.699219 228.34375 340.535156 228.5 L 355.054688 231.257812 C 355.894531 231.414062 356.445312 232.222656 356.285156 233.058594 C 356.144531 233.800781 355.496094 234.316406 354.769531 234.316406 " fill-opacity="1" fill-rule="nonzero"/><path fill="#caddff" d="M 327.8125 229.25 C 327.714844 229.25 327.617188 229.242188 327.523438 229.222656 L 275.761719 219.347656 C 274.921875 219.191406 274.375 218.382812 274.53125 217.542969 C 274.695312 216.707031 275.5 216.160156 276.339844 216.316406 L 328.097656 226.191406 C 328.9375 226.351562 329.484375 227.15625 329.328125 227.996094 C 329.183594 228.734375 328.535156 229.25 327.8125 229.25 " fill-opacity="1" fill-rule="nonzero"/><path fill="#caddff" d="M 354.769531 244.886719 C 354.675781 244.886719 354.578125 244.878906 354.480469 244.859375 L 275.761719 229.921875 C 274.925781 229.761719 274.375 228.953125 274.53125 228.117188 C 274.691406 227.28125 275.5 226.730469 276.339844 226.890625 L 355.054688 241.828125 C 355.894531 241.988281 356.445312 242.796875 356.285156 243.632812 C 356.144531 244.371094 355.496094 244.886719 354.769531 244.886719 " fill-opacity="1" fill-rule="nonzero"/><path fill="#caddff" d="M 354.769531 255.460938 C 354.675781 255.460938 354.578125 255.453125 354.480469 255.433594 L 308.292969 246.667969 C 307.453125 246.507812 306.90625 245.699219 307.0625 244.863281 C 307.222656 244.023438 308.03125 243.476562 308.867188 243.636719 L 355.054688 252.398438 C 355.894531 252.558594 356.445312 253.367188 356.285156 254.203125 C 356.144531 254.945312 355.496094 255.460938 354.769531 255.460938 " fill-opacity="1" fill-rule="nonzero"/><path fill="#db7803" d="M 295.589844 244.230469 C 295.492188 244.230469 295.394531 244.222656 295.296875 244.203125 L 275.761719 240.496094 C 274.921875 240.335938 274.375 239.527344 274.53125 238.691406 C 274.691406 237.851562 275.496094 237.304688 276.339844 237.460938 L 295.875 241.167969 C 296.710938 241.328125 297.261719 242.136719 297.105469 242.972656 C 296.960938 243.714844 296.3125 244.230469 295.589844 244.230469 " fill-opacity="1" fill-rule="nonzero"/><path fill="#db7803" d="M 354.769531 266.03125 C 354.679688 266.03125 354.585938 266.023438 354.496094 266.007812 L 341.660156 263.699219 C 340.824219 263.550781 340.265625 262.746094 340.417969 261.90625 C 340.566406 261.070312 341.375 260.507812 342.210938 260.664062 L 355.039062 262.96875 C 355.878906 263.121094 356.4375 263.921875 356.289062 264.761719 C 356.152344 265.507812 355.5 266.03125 354.769531 266.03125 " fill-opacity="1" fill-rule="nonzero"/><path fill="#caddff" d="M 332.855469 261.875 C 332.757812 261.875 332.664062 261.867188 332.5625 261.847656 L 275.761719 251.066406 C 274.921875 250.90625 274.375 250.101562 274.53125 249.261719 C 274.691406 248.425781 275.5 247.875 276.339844 248.035156 L 333.140625 258.816406 C 333.976562 258.972656 334.527344 259.78125 334.367188 260.617188 C 334.226562 261.359375 333.582031 261.875 332.855469 261.875 " fill-opacity="1" fill-rule="nonzero"/><path fill="#caddff" d="M 354.769531 276.605469 C 354.675781 276.605469 354.578125 276.597656 354.480469 276.578125 L 275.761719 261.636719 C 274.925781 261.480469 274.375 260.671875 274.53125 259.835938 C 274.691406 258.996094 275.5 258.449219 276.339844 258.605469 L 355.054688 273.546875 C 355.894531 273.707031 356.445312 274.511719 356.285156 275.347656 C 356.144531 276.089844 355.496094 276.605469 354.769531 276.605469 " fill-opacity="1" fill-rule="nonzero"/><path fill="#ffffff" d="M 357.503906 199.242188 L 234.601562 174.769531 C 231.601562 174.171875 229.441406 171.542969 229.441406 168.484375 L 229.441406 92.445312 C 229.441406 88.402344 233.140625 85.367188 237.101562 86.160156 L 360.007812 110.632812 C 363.007812 111.230469 365.167969 113.859375 365.167969 116.917969 L 365.167969 192.957031 C 365.167969 197 361.46875 200.03125 357.503906 199.242188 " fill-opacity="1" fill-rule="nonzero"/><path fill="#000000" d="M 241.671875 176.839844 C 241.632812 176.839844 241.585938 176.835938 241.542969 176.828125 L 234.46875 175.417969 C 231.171875 174.761719 228.78125 171.847656 228.78125 168.484375 L 228.78125 158.945312 C 228.78125 158.582031 229.078125 158.285156 229.441406 158.285156 C 229.808594 158.285156 230.101562 158.582031 230.101562 158.945312 L 230.101562 168.484375 C 230.101562 171.21875 232.046875 173.589844 234.730469 174.121094 L 241.804688 175.53125 C 242.160156 175.601562 242.394531 175.949219 242.324219 176.308594 C 242.261719 176.625 241.984375 176.839844 241.671875 176.839844 " fill-opacity="1" fill-rule="nonzero"/><path fill="#000000" d="M 358.765625 200.027344 C 358.304688 200.027344 357.839844 199.984375 357.375 199.890625 L 254.195312 179.347656 C 253.835938 179.277344 253.605469 178.925781 253.675781 178.566406 C 253.746094 178.210938 254.097656 177.976562 254.453125 178.050781 L 357.632812 198.59375 C 359.328125 198.933594 361.066406 198.496094 362.402344 197.402344 C 363.738281 196.304688 364.507812 194.6875 364.507812 192.957031 L 364.507812 116.917969 C 364.507812 114.183594 362.5625 111.8125 359.878906 111.277344 L 236.972656 86.808594 C 235.277344 86.472656 233.542969 86.90625 232.207031 88 C 230.867188 89.097656 230.101562 90.71875 230.101562 92.445312 L 230.101562 117.265625 C 230.101562 117.632812 229.804688 117.925781 229.441406 117.925781 C 229.074219 117.925781 228.78125 117.632812 228.78125 117.265625 L 228.78125 92.445312 C 228.78125 90.320312 229.722656 88.328125 231.367188 86.976562 C 233.007812 85.632812 235.148438 85.09375 237.234375 85.507812 L 360.140625 109.984375 C 363.4375 110.640625 365.828125 113.554688 365.828125 116.917969 L 365.828125 192.957031 C 365.828125 195.082031 364.886719 197.074219 363.242188 198.425781 C 361.964844 199.472656 360.386719 200.027344 358.765625 200.027344 " fill-opacity="1" fill-rule="nonzero"/><path fill="#caddff" d="M 243.648438 168.878906 L 238.15625 167.765625 C 237.191406 167.570312 236.5 166.722656 236.5 165.738281 L 236.5 159.121094 C 236.5 157.828125 237.675781 156.851562 238.945312 157.089844 L 244.53125 158.128906 C 245.519531 158.316406 246.230469 159.183594 246.21875 160.191406 L 246.125 166.882812 C 246.109375 168.175781 244.917969 169.136719 243.648438 168.878906 " fill-opacity="1" fill-rule="nonzero"/><path fill="#caddff" d="M 259.671875 172.03125 L 254.0625 170.910156 C 253.097656 170.714844 252.402344 169.867188 252.402344 168.882812 L 252.402344 146.40625 C 252.402344 145.105469 253.597656 144.125 254.875 144.378906 L 260.484375 145.5 C 261.449219 145.695312 262.144531 146.542969 262.144531 147.527344 L 262.144531 170.003906 C 262.144531 171.308594 260.953125 172.289062 259.671875 172.03125 " fill-opacity="1" fill-rule="nonzero"/><path fill="#caddff" d="M 275.582031 175.210938 L 269.972656 174.105469 C 269.003906 173.914062 268.304688 173.066406 268.304688 172.078125 L 268.304688 150.292969 C 268.304688 148.980469 269.515625 148 270.796875 148.269531 L 276.40625 149.449219 C 277.363281 149.652344 278.050781 150.496094 278.050781 151.472656 L 278.050781 173.183594 C 278.050781 174.488281 276.859375 175.464844 275.582031 175.210938 " fill-opacity="1" fill-rule="nonzero"/><path fill="#caddff" d="M 291.414062 178.285156 L 285.894531 177.246094 C 284.914062 177.0625 284.207031 176.207031 284.207031 175.214844 L 284.207031 136.792969 C 284.207031 135.492188 285.394531 134.515625 286.671875 134.765625 L 292.273438 135.859375 C 293.246094 136.046875 293.949219 136.902344 293.945312 137.890625 L 293.867188 176.257812 C 293.863281 177.550781 292.6875 178.523438 291.414062 178.285156 " fill-opacity="1" fill-rule="nonzero"/><path fill="#caddff" d="M 307.394531 181.550781 L 301.785156 180.46875 C 300.816406 180.277344 300.113281 179.425781 300.113281 178.4375 L 300.113281 144.964844 C 300.113281 143.65625 301.3125 142.675781 302.59375 142.9375 L 308.203125 144.085938 C 309.164062 144.28125 309.855469 145.128906 309.855469 146.113281 L 309.855469 179.519531 C 309.855469 180.820312 308.671875 181.796875 307.394531 181.550781 " fill-opacity="1" fill-rule="nonzero"/><path fill="#caddff" d="M 323.289062 184.675781 L 317.679688 183.558594 C 316.710938 183.367188 316.015625 182.519531 316.015625 181.53125 L 316.015625 151.066406 C 316.015625 149.761719 317.210938 148.777344 318.488281 149.039062 L 324.097656 150.171875 C 325.0625 150.367188 325.753906 151.214844 325.753906 152.199219 L 325.753906 182.644531 C 325.753906 183.949219 324.566406 184.925781 323.289062 184.675781 " fill-opacity="1" fill-rule="nonzero"/><path fill="#caddff" d="M 339.203125 187.816406 L 333.589844 186.734375 C 332.621094 186.546875 331.917969 185.695312 331.917969 184.707031 L 331.917969 131.835938 C 331.917969 130.53125 333.109375 129.550781 334.386719 129.808594 L 340 130.929688 C 340.960938 131.121094 341.660156 131.972656 341.660156 132.957031 L 341.660156 185.789062 C 341.660156 187.085938 340.476562 188.0625 339.203125 187.816406 " fill-opacity="1" fill-rule="nonzero"/><path fill="#caddff" d="M 355.09375 190.964844 L 349.484375 189.855469 C 348.515625 189.664062 347.820312 188.8125 347.820312 187.828125 L 347.820312 147.375 C 347.820312 146.066406 349.015625 145.089844 350.292969 145.347656 L 355.902344 146.484375 C 356.867188 146.679688 357.558594 147.527344 357.558594 148.511719 L 357.558594 188.9375 C 357.558594 190.242188 356.371094 191.21875 355.09375 190.964844 " fill-opacity="1" fill-rule="nonzero"/><path fill="#000000" d="M 239.148438 143.132812 C 238.980469 143.132812 238.808594 143.070312 238.679688 142.9375 C 238.417969 142.683594 238.417969 142.261719 238.679688 142.003906 L 259.199219 121.488281 L 273.820312 136.105469 L 293.570312 116.355469 L 315.339844 138.128906 L 336.257812 117.207031 L 355.542969 136.546875 C 355.800781 136.804688 355.800781 137.222656 355.542969 137.480469 C 355.285156 137.738281 354.867188 137.738281 354.609375 137.480469 L 336.257812 119.078125 L 315.339844 140 L 293.570312 118.226562 L 273.820312 137.980469 L 259.199219 123.359375 L 239.613281 142.9375 C 239.484375 143.070312 239.316406 143.132812 239.148438 143.132812 " fill-opacity="1" fill-rule="nonzero"/><path fill="#fbb460" d="M 245.402344 142.535156 C 245.402344 145.765625 242.78125 148.386719 239.550781 148.386719 C 236.316406 148.386719 233.699219 145.765625 233.699219 142.535156 C 233.699219 139.300781 236.316406 136.683594 239.550781 136.683594 C 242.78125 136.683594 245.402344 139.300781 245.402344 142.535156 " fill-opacity="1" fill-rule="nonzero"/><path fill="#000000" d="M 239.550781 137.34375 C 236.6875 137.34375 234.359375 139.671875 234.359375 142.535156 C 234.359375 145.398438 236.6875 147.726562 239.550781 147.726562 C 242.410156 147.726562 244.742188 145.398438 244.742188 142.535156 C 244.742188 139.671875 242.410156 137.34375 239.550781 137.34375 Z M 239.550781 149.046875 C 235.957031 149.046875 233.035156 146.125 233.035156 142.535156 C 233.035156 138.945312 235.957031 136.023438 239.550781 136.023438 C 243.144531 136.023438 246.0625 138.945312 246.0625 142.535156 C 246.0625 146.125 243.144531 149.046875 239.550781 149.046875 " fill-opacity="1" fill-rule="nonzero"/><path fill="#fbb460" d="M 279.925781 136.828125 C 279.925781 140.058594 277.304688 142.679688 274.070312 142.679688 C 270.839844 142.679688 268.21875 140.058594 268.21875 136.828125 C 268.21875 133.59375 270.839844 130.972656 274.070312 130.972656 C 277.304688 130.972656 279.925781 133.59375 279.925781 136.828125 " fill-opacity="1" fill-rule="nonzero"/><path fill="#000000" d="M 274.070312 131.636719 C 271.210938 131.636719 268.882812 133.964844 268.882812 136.828125 C 268.882812 139.6875 271.210938 142.015625 274.070312 142.015625 C 276.933594 142.015625 279.261719 139.6875 279.261719 136.828125 C 279.261719 133.964844 276.933594 131.636719 274.070312 131.636719 Z M 274.070312 143.339844 C 270.480469 143.339844 267.558594 140.417969 267.558594 136.828125 C 267.558594 133.234375 270.480469 130.3125 274.070312 130.3125 C 277.664062 130.3125 280.585938 133.234375 280.585938 136.828125 C 280.585938 140.417969 277.664062 143.339844 274.070312 143.339844 " fill-opacity="1" fill-rule="nonzero"/><path fill="#db7803" d="M 264.433594 123.042969 C 264.433594 126.277344 261.8125 128.898438 258.578125 128.898438 C 255.347656 128.898438 252.726562 126.277344 252.726562 123.042969 C 252.726562 119.8125 255.347656 117.191406 258.578125 117.191406 C 261.8125 117.191406 264.433594 119.8125 264.433594 123.042969 " fill-opacity="1" fill-rule="nonzero"/><path fill="#000000" d="M 258.578125 117.851562 C 255.71875 117.851562 253.390625 120.183594 253.390625 123.046875 C 253.390625 125.90625 255.71875 128.234375 258.578125 128.234375 C 261.441406 128.234375 263.769531 125.90625 263.769531 123.046875 C 263.769531 120.183594 261.441406 117.851562 258.578125 117.851562 Z M 258.578125 129.558594 C 254.988281 129.558594 252.066406 126.636719 252.066406 123.046875 C 252.066406 119.453125 254.988281 116.53125 258.578125 116.53125 C 262.171875 116.53125 265.09375 119.453125 265.09375 123.046875 C 265.09375 126.636719 262.171875 129.558594 258.578125 129.558594 " fill-opacity="1" fill-rule="nonzero"/><path fill="#fbb460" d="M 318.46875 139.382812 C 318.46875 141.132812 317.046875 142.550781 315.300781 142.550781 C 313.550781 142.550781 312.128906 141.132812 312.128906 139.382812 C 312.128906 137.632812 313.550781 136.214844 315.300781 136.214844 C 317.046875 136.214844 318.46875 137.632812 318.46875 139.382812 " fill-opacity="1" fill-rule="nonzero"/><path fill="#000000" d="M 315.300781 136.878906 C 313.917969 136.878906 312.792969 138 312.792969 139.382812 C 312.792969 140.765625 313.917969 141.890625 315.300781 141.890625 C 316.679688 141.890625 317.804688 140.765625 317.804688 139.382812 C 317.804688 138 316.679688 136.878906 315.300781 136.878906 Z M 315.300781 143.214844 C 313.1875 143.214844 311.464844 141.496094 311.464844 139.382812 C 311.464844 137.273438 313.1875 135.554688 315.300781 135.554688 C 317.410156 135.554688 319.128906 137.273438 319.128906 139.382812 C 319.128906 141.496094 317.410156 143.214844 315.300781 143.214844 " fill-opacity="1" fill-rule="nonzero"/><path fill="#db7803" d="M 296.785156 117.09375 C 296.785156 118.84375 295.367188 120.261719 293.617188 120.261719 C 291.867188 120.261719 290.449219 118.84375 290.449219 117.09375 C 290.449219 115.34375 291.867188 113.921875 293.617188 113.921875 C 295.367188 113.921875 296.785156 115.34375 296.785156 117.09375 " fill-opacity="1" fill-rule="nonzero"/><path fill="#000000" d="M 293.617188 114.585938 C 292.234375 114.585938 291.109375 115.710938 291.109375 117.09375 C 291.109375 118.476562 292.234375 119.601562 293.617188 119.601562 C 295 119.601562 296.125 118.476562 296.125 117.09375 C 296.125 115.710938 295 114.585938 293.617188 114.585938 Z M 293.617188 120.921875 C 291.507812 120.921875 289.785156 119.207031 289.785156 117.09375 C 289.785156 114.980469 291.507812 113.261719 293.617188 113.261719 C 295.730469 113.261719 297.445312 114.980469 297.445312 117.09375 C 297.445312 119.207031 295.730469 120.921875 293.617188 120.921875 " fill-opacity="1" fill-rule="nonzero"/><path fill="#fbb460" d="M 358.007812 136.636719 C 358.007812 138.386719 356.589844 139.804688 354.84375 139.804688 C 353.089844 139.804688 351.671875 138.386719 351.671875 136.636719 C 351.671875 134.886719 353.089844 133.46875 354.84375 133.46875 C 356.589844 133.46875 358.007812 134.886719 358.007812 136.636719 " fill-opacity="1" fill-rule="nonzero"/><path fill="#000000" d="M 354.84375 134.128906 C 353.460938 134.128906 352.335938 135.253906 352.335938 136.636719 C 352.335938 138.015625 353.460938 139.140625 354.84375 139.140625 C 356.226562 139.140625 357.351562 138.015625 357.351562 136.636719 C 357.351562 135.253906 356.226562 134.128906 354.84375 134.128906 Z M 354.84375 140.464844 C 352.730469 140.464844 351.011719 138.746094 351.011719 136.636719 C 351.011719 134.523438 352.730469 132.804688 354.84375 132.804688 C 356.953125 132.804688 358.671875 134.523438 358.671875 136.636719 C 358.671875 138.746094 356.953125 140.464844 354.84375 140.464844 " fill-opacity="1" fill-rule="nonzero"/><path fill="#db7803" d="M 339.535156 118.007812 C 339.535156 119.757812 338.117188 121.175781 336.367188 121.175781 C 334.617188 121.175781 333.199219 119.757812 333.199219 118.007812 C 333.199219 116.257812 334.617188 114.839844 336.367188 114.839844 C 338.117188 114.839844 339.535156 116.257812 339.535156 118.007812 " fill-opacity="1" fill-rule="nonzero"/><path fill="#000000" d="M 336.367188 115.5 C 334.984375 115.5 333.859375 116.625 333.859375 118.007812 C 333.859375 119.390625 334.984375 120.515625 336.367188 120.515625 C 337.75 120.515625 338.875 119.390625 338.875 118.007812 C 338.875 116.625 337.75 115.5 336.367188 115.5 Z M 336.367188 121.839844 C 334.253906 121.839844 332.535156 120.121094 332.535156 118.007812 C 332.535156 115.894531 334.253906 114.179688 336.367188 114.179688 C 338.480469 114.179688 340.199219 115.894531 340.199219 118.007812 C 340.199219 120.121094 338.480469 121.839844 336.367188 121.839844 " fill-opacity="1" fill-rule="nonzero"/><path fill="#ffffff" d="M 172.828125 157.316406 L 127.71875 147.832031 C 124.222656 147.097656 121.71875 144.015625 121.71875 140.441406 L 121.71875 109.410156 C 121.71875 104.613281 126.132812 101.03125 130.828125 102.019531 L 175.933594 111.503906 C 179.433594 112.238281 181.933594 115.320312 181.933594 118.894531 L 181.933594 149.925781 C 181.933594 154.722656 177.519531 158.304688 172.828125 157.316406 " fill-opacity="1" fill-rule="nonzero"/><path fill="#db7803" d="M 121.820312 140.863281 L 121.820312 133.929688 L 136.234375 119.527344 C 137.601562 118.164062 139.8125 118.164062 141.179688 119.527344 L 151.054688 129.398438 C 152.367188 130.710938 154.472656 130.769531 155.855469 129.535156 L 156.753906 128.730469 C 158.144531 127.492188 160.257812 127.554688 161.570312 128.878906 L 181.753906 149.226562 L 181.746094 150.710938 C 181.734375 155.132812 177.652344 158.421875 173.324219 157.5 L 127.335938 147.679688 C 124.121094 146.992188 121.820312 144.152344 121.820312 140.863281 " fill-opacity="1" fill-rule="nonzero"/><path fill="#000000" d="M 172.960938 156.671875 C 175 157.101562 177.101562 156.59375 178.722656 155.28125 C 180.339844 153.964844 181.269531 152.015625 181.269531 149.925781 L 181.269531 118.894531 C 181.269531 115.65625 178.96875 112.820312 175.796875 112.152344 L 130.691406 102.667969 C 128.648438 102.238281 126.546875 102.746094 124.929688 104.0625 C 123.308594 105.375 122.378906 107.324219 122.378906 109.410156 L 122.378906 140.445312 C 122.378906 143.683594 124.683594 146.519531 127.851562 147.1875 Z M 174.390625 158.144531 C 173.828125 158.144531 173.257812 158.085938 172.691406 157.964844 L 127.582031 148.480469 C 123.800781 147.6875 121.058594 144.304688 121.058594 140.445312 L 121.058594 109.410156 C 121.058594 106.925781 122.164062 104.601562 124.097656 103.035156 C 126.027344 101.464844 128.527344 100.859375 130.960938 101.375 L 176.070312 110.855469 C 179.847656 111.652344 182.59375 115.03125 182.59375 118.894531 L 182.59375 149.925781 C 182.59375 152.414062 181.488281 154.738281 179.554688 156.308594 C 178.074219 157.507812 176.257812 158.144531 174.390625 158.144531 " fill-opacity="1" fill-rule="nonzero"/><path fill="#fbb460" d="M 174.707031 121.957031 C 174.707031 124.949219 172.28125 127.378906 169.285156 127.378906 C 166.289062 127.378906 163.859375 124.949219 163.859375 121.957031 C 163.859375 118.960938 166.289062 116.53125 169.285156 116.53125 C 172.28125 116.53125 174.707031 118.960938 174.707031 121.957031 " fill-opacity="1" fill-rule="nonzero"/><path fill="#ffffff" d="M 204 106.214844 L 42.613281 73.386719 C 40.019531 72.863281 38.15625 70.582031 38.15625 67.9375 L 38.15625 51.820312 C 38.15625 48.300781 41.382812 45.667969 44.832031 46.367188 L 206.21875 79.195312 C 208.8125 79.71875 210.675781 82 210.675781 84.644531 L 210.675781 100.761719 C 210.675781 104.28125 207.449219 106.917969 204 106.214844 " fill-opacity="1" fill-rule="nonzero"/><path fill="#000000" d="M 204.132812 105.566406 C 205.582031 105.863281 207.070312 105.492188 208.214844 104.558594 C 209.359375 103.625 210.015625 102.238281 210.015625 100.761719 L 210.015625 84.644531 C 210.015625 82.324219 208.363281 80.304688 206.085938 79.839844 L 44.699219 47.015625 C 43.25 46.71875 41.765625 47.085938 40.621094 48.023438 C 39.476562 48.957031 38.820312 50.34375 38.820312 51.820312 L 38.820312 67.933594 C 38.820312 70.253906 40.472656 72.277344 42.746094 72.742188 Z M 205.117188 106.988281 C 204.703125 106.988281 204.285156 106.945312 203.871094 106.863281 L 42.480469 74.035156 C 39.59375 73.449219 37.496094 70.882812 37.496094 67.933594 L 37.496094 51.820312 C 37.496094 49.941406 38.328125 48.1875 39.785156 47 C 41.234375 45.8125 43.125 45.34375 44.964844 45.71875 L 206.351562 78.542969 C 209.242188 79.132812 211.339844 81.699219 211.339844 84.644531 L 211.339844 100.761719 C 211.339844 102.636719 210.503906 104.394531 209.050781 105.582031 C 207.925781 106.5 206.542969 106.988281 205.117188 106.988281 " fill-opacity="1" fill-rule="nonzero"/><path fill="#caddff" d="M 183.613281 93.652344 L 118.40625 80.347656 C 116.035156 79.863281 114.324219 77.792969 114.289062 75.375 L 114.289062 75.367188 C 114.238281 72.078125 117.242188 69.585938 120.464844 70.246094 L 185.671875 83.550781 C 188.042969 84.035156 189.753906 86.105469 189.789062 88.519531 L 189.789062 88.53125 C 189.839844 91.820312 186.832031 94.3125 183.613281 93.652344 " fill-opacity="1" fill-rule="nonzero"/><path fill="#fbb460" d="M 99.902344 76.527344 L 74.210938 71.234375 C 71.84375 70.75 70.128906 68.679688 70.09375 66.261719 L 70.09375 66.253906 C 70.042969 62.964844 73.050781 60.472656 76.273438 61.128906 L 101.960938 66.429688 C 104.332031 66.910156 106.042969 68.980469 106.082031 71.398438 L 106.082031 71.40625 C 106.128906 74.695312 103.125 77.1875 99.902344 76.527344 " fill-opacity="1" fill-rule="nonzero"/><path fill="#db7803" d="M 57.460938 63.851562 C 55.511719 65.800781 52.351562 65.800781 50.402344 63.851562 C 48.453125 61.898438 48.453125 58.742188 50.402344 56.789062 C 52.351562 54.839844 55.511719 54.839844 57.460938 56.789062 C 59.410156 58.742188 59.410156 61.898438 57.460938 63.851562 Z M 58.632812 55.617188 C 56.035156 53.023438 51.828125 53.023438 49.230469 55.617188 C 46.84375 58.003906 46.65625 61.753906 48.660156 64.359375 L 44.65625 68.363281 C 44.320312 68.699219 44.320312 69.242188 44.65625 69.578125 C 44.992188 69.914062 45.539062 69.914062 45.871094 69.578125 L 49.875 65.578125 C 52.480469 67.597656 56.242188 67.414062 58.632812 65.023438 C 61.230469 62.425781 61.230469 58.214844 58.632812 55.617188 " fill-opacity="1" fill-rule="nonzero"/><path fill="#ffffff" d="M 282.910156 143.449219 C 281.632812 149.859375 278.03125 155.839844 272.273438 160.015625 C 260.890625 168.269531 244.855469 166.300781 235.8125 155.53125 C 225.765625 143.574219 227.910156 125.65625 240.492188 116.40625 C 251.882812 108.035156 268.039062 109.980469 277.117188 120.8125 C 280.625 124.996094 282.640625 129.910156 283.242188 134.925781 L 283.269531 135.125 C 283.613281 137.902344 283.488281 140.710938 282.910156 143.449219 Z M 232.394531 118.480469 C 223.363281 129.5 222.847656 145.683594 232.015625 157.355469 C 236.242188 162.730469 241.882812 166.332031 247.992188 168.054688 L 244.445312 180.75 C 244.199219 181.640625 244.640625 182.621094 245.515625 182.914062 C 246.449219 183.230469 247.441406 182.695312 247.703125 181.757812 L 251.324219 168.808594 C 260.066406 170.265625 269.398438 168.007812 276.730469 161.710938 C 289.050781 151.128906 291.078125 132.5625 281.347656 119.558594 C 270.855469 105.539062 250.949219 102.96875 237.257812 113.722656 L 237.242188 113.734375 C 235.421875 115.09375 233.792969 116.691406 232.394531 118.480469 " fill-opacity="1" fill-rule="nonzero"/><path fill="#000000" d="M 256.511719 165.800781 C 255.398438 165.800781 254.28125 165.734375 253.15625 165.601562 C 245.828125 164.722656 239.277344 161.039062 234.71875 155.230469 C 230.15625 149.425781 228.132812 142.191406 229.011719 134.863281 C 229.890625 127.53125 233.574219 120.980469 239.378906 116.421875 C 245.1875 111.859375 252.421875 109.832031 259.75 110.714844 C 267.082031 111.597656 273.628906 115.277344 278.191406 121.085938 C 281.324219 125.074219 283.300781 129.832031 283.898438 134.84375 C 283.945312 135.207031 283.683594 135.539062 283.324219 135.578125 C 282.960938 135.628906 282.628906 135.367188 282.585938 135.003906 C 282.015625 130.230469 280.136719 125.703125 277.152344 121.902344 C 272.808594 116.375 266.574219 112.867188 259.59375 112.027344 C 252.617188 111.191406 245.726562 113.121094 240.195312 117.460938 C 234.667969 121.804688 231.164062 128.039062 230.324219 135.019531 C 229.484375 142 231.417969 148.886719 235.757812 154.417969 C 240.101562 159.941406 246.335938 163.449219 253.3125 164.289062 C 260.292969 165.125 267.183594 163.199219 272.710938 158.855469 C 277.644531 154.980469 281.035156 149.464844 282.261719 143.320312 C 282.335938 142.960938 282.679688 142.726562 283.039062 142.800781 C 283.398438 142.871094 283.628906 143.222656 283.558594 143.578125 C 282.273438 150.03125 278.710938 155.828125 273.527344 159.894531 C 268.613281 163.757812 262.667969 165.800781 256.511719 165.800781 Z M 246.0625 183.667969 C 245.851562 183.667969 245.636719 183.640625 245.425781 183.578125 C 244.167969 183.226562 243.433594 181.921875 243.785156 180.664062 L 247.179688 168.507812 C 240.949219 166.609375 235.535156 162.90625 231.496094 157.761719 C 227.007812 152.050781 224.605469 144.910156 224.722656 137.664062 C 224.835938 130.515625 227.382812 123.554688 231.886719 118.058594 C 232.117188 117.777344 232.535156 117.738281 232.816406 117.96875 C 233.097656 118.199219 233.140625 118.617188 232.90625 118.898438 C 223.957031 129.820312 223.800781 145.824219 232.535156 156.945312 C 236.539062 162.039062 241.945312 165.664062 248.171875 167.417969 L 248.808594 167.597656 L 245.058594 181.019531 C 244.902344 181.570312 245.226562 182.148438 245.78125 182.304688 C 246.335938 182.457031 246.914062 182.136719 247.066406 181.582031 L 250.847656 168.058594 L 251.433594 168.152344 C 259.855469 169.5625 268.535156 167.34375 275.242188 162.078125 C 281.632812 157.058594 285.683594 149.851562 286.652344 141.785156 C 287.621094 133.722656 285.390625 125.757812 280.371094 119.371094 C 275.355469 112.984375 268.148438 108.929688 260.082031 107.964844 C 252.019531 106.992188 244.058594 109.222656 237.667969 114.242188 C 237.382812 114.46875 236.964844 114.417969 236.738281 114.132812 C 236.511719 113.84375 236.5625 113.425781 236.851562 113.203125 C 243.515625 107.964844 251.824219 105.640625 260.238281 106.648438 C 268.65625 107.660156 276.175781 111.886719 281.414062 118.554688 C 286.648438 125.222656 288.976562 133.527344 287.964844 141.945312 C 286.953125 150.359375 282.726562 157.882812 276.058594 163.117188 C 269.214844 168.492188 260.40625 170.824219 251.804688 169.554688 L 248.34375 181.9375 C 248.046875 182.980469 247.097656 183.667969 246.0625 183.667969 " fill-opacity="1" fill-rule="nonzero"/><path fill="#db7803" d="M 190.8125 346.570312 C 190.8125 346.570312 188.261719 358.132812 191.085938 361.433594 L 191.960938 362.851562 L 178.554688 361.996094 L 179.222656 360.535156 C 180.402344 357.933594 182.433594 349.867188 182.238281 347.121094 L 190.8125 346.570312 " fill-opacity="1" fill-rule="nonzero"/><path fill="#ffffff" d="M 191.808594 357.476562 L 193.34375 358.828125 C 196.414062 361.527344 200.089844 363.441406 204.0625 364.402344 L 204.816406 364.585938 C 205.109375 364.65625 205.339844 364.863281 205.445312 365.144531 L 205.5 365.285156 C 206.089844 366.855469 204.679688 370.773438 198.925781 372.753906 C 197.429688 373.269531 193.433594 372.886719 187.5 372.882812 C 184.921875 372.878906 182.269531 372.875 180.730469 372.871094 C 179.21875 372.867188 177.722656 372.460938 176.472656 371.617188 C 175.070312 370.671875 173.804688 369.085938 174.332031 366.527344 C 174.851562 364.015625 176.890625 359.097656 177.992188 357.25 C 178.203125 356.890625 178.667969 356.808594 179.003906 357.058594 L 180.148438 359.835938 C 180.921875 361.714844 182.859375 362.921875 184.871094 362.617188 C 184.996094 362.597656 185.125 362.574219 185.253906 362.542969 C 186.542969 362.25 187.652344 361.4375 188.433594 360.367188 L 190.429688 357.625 C 190.753906 357.179688 191.394531 357.113281 191.808594 357.476562 " fill-opacity="1" fill-rule="nonzero"/><path fill="#000000" d="M 177.992188 357.25 L 178.488281 357.546875 L 178.480469 357.515625 Z M 178.527344 357.640625 C 177.40625 359.550781 175.460938 364.3125 174.980469 366.660156 C 174.601562 368.496094 175.226562 369.980469 176.839844 371.066406 C 177.941406 371.8125 179.285156 372.203125 180.730469 372.207031 C 182.269531 372.210938 184.925781 372.214844 187.5 372.21875 C 189.523438 372.21875 191.296875 372.265625 192.867188 372.304688 C 195.75 372.378906 197.835938 372.429688 198.710938 372.128906 C 202.578125 370.796875 204.035156 368.722656 204.5625 367.605469 C 205.015625 366.648438 205.023438 365.898438 204.878906 365.515625 L 204.828125 365.375 C 204.800781 365.304688 204.738281 365.246094 204.664062 365.230469 L 203.90625 365.046875 C 199.84375 364.0625 196.042969 362.082031 192.910156 359.324219 L 191.371094 357.972656 C 191.289062 357.902344 191.203125 357.894531 191.15625 357.902344 C 191.113281 357.910156 191.027344 357.929688 190.964844 358.015625 L 188.964844 360.757812 C 188.054688 362.007812 186.785156 362.875 185.398438 363.191406 C 185.253906 363.222656 185.113281 363.25 184.972656 363.269531 C 182.6875 363.621094 180.453125 362.308594 179.535156 360.085938 Z M 195.957031 373.683594 C 195.066406 373.683594 194.027344 373.65625 192.835938 373.628906 C 191.273438 373.585938 189.503906 373.542969 187.496094 373.542969 C 184.921875 373.539062 182.265625 373.535156 180.726562 373.53125 C 179.015625 373.527344 177.417969 373.050781 176.101562 372.164062 C 174.027344 370.765625 173.195312 368.773438 173.683594 366.394531 C 174.207031 363.867188 176.230469 358.910156 177.421875 356.910156 C 177.617188 356.585938 177.941406 356.355469 178.308594 356.28125 C 178.6875 356.203125 179.082031 356.292969 179.394531 356.523438 L 179.542969 356.632812 L 180.757812 359.582031 C 181.429688 361.214844 183.113281 362.214844 184.769531 361.964844 C 184.878906 361.945312 184.992188 361.921875 185.105469 361.898438 C 186.179688 361.65625 187.171875 360.972656 187.898438 359.976562 L 189.898438 357.238281 C 190.160156 356.875 190.566406 356.636719 191.011719 356.589844 C 191.460938 356.539062 191.90625 356.683594 192.246094 356.980469 L 193.78125 358.332031 C 196.757812 360.949219 200.363281 362.824219 204.21875 363.761719 L 204.972656 363.941406 C 205.476562 364.066406 205.882812 364.425781 206.066406 364.910156 L 206.117188 365.050781 C 206.429688 365.882812 206.300781 367.019531 205.761719 368.167969 C 205.144531 369.472656 203.46875 371.890625 199.140625 373.378906 C 198.460938 373.613281 197.40625 373.683594 195.957031 373.683594 " fill-opacity="1" fill-rule="nonzero"/><path fill="#000000" d="M 183.605469 370.808594 C 178.660156 370.808594 176.199219 368.199219 176.09375 368.082031 C 175.847656 367.816406 175.863281 367.394531 176.132812 367.148438 C 176.402344 366.898438 176.816406 366.917969 177.066406 367.1875 C 177.167969 367.296875 179.46875 369.683594 184.160156 369.472656 C 187.785156 369.320312 193.144531 369.382812 196.015625 369.433594 C 197.664062 369.457031 199.214844 369.027344 200.496094 368.167969 C 200.910156 367.890625 201.222656 367.617188 201.421875 367.359375 C 201.644531 367.066406 202.058594 367.015625 202.347656 367.234375 C 202.640625 367.457031 202.695312 367.875 202.472656 368.164062 C 202.183594 368.539062 201.765625 368.910156 201.230469 369.269531 C 199.722656 370.277344 197.914062 370.789062 195.992188 370.757812 C 193.136719 370.707031 187.804688 370.640625 184.21875 370.796875 C 184.011719 370.804688 183.804688 370.808594 183.605469 370.808594 " fill-opacity="1" fill-rule="nonzero"/><path fill="#db7803" d="M 152.625 345.898438 C 152.625 345.898438 149.113281 352.96875 150.207031 356.980469 L 150.40625 358.574219 L 139.003906 351.523438 L 140.261719 350.71875 C 142.144531 348.839844 144.257812 347.539062 145.085938 345.011719 L 152.625 345.898438 " fill-opacity="1" fill-rule="nonzero"/><path fill="#ffffff" d="M 151.5 354.632812 L 151.707031 356.582031 C 152.121094 360.441406 153.464844 364.144531 155.621094 367.371094 L 157.28125 369.847656 C 157.441406 370.082031 157.472656 370.382812 157.363281 370.644531 L 157.308594 370.777344 C 156.710938 372.269531 153.179688 374.113281 147.84375 371.785156 C 144.542969 370.347656 141.214844 365.9375 131.714844 357.0625 C 131.222656 356.605469 131.378906 355.765625 131.804688 355.246094 C 133.363281 353.355469 137.253906 348.972656 140.734375 347.914062 C 141.121094 347.796875 141.523438 348.027344 141.601562 348.425781 L 142.351562 352.242188 C 142.6875 353.957031 144.351562 355.070312 146.0625 354.726562 L 150.433594 353.851562 C 150.953125 353.746094 151.445312 354.109375 151.5 354.632812 " fill-opacity="1" fill-rule="nonzero"/><path fill="#000000" d="M 140.953125 348.554688 C 137.613281 349.558594 133.800781 353.863281 132.316406 355.667969 C 132.0625 355.972656 131.992188 356.417969 132.164062 356.582031 C 135.652344 359.839844 138.308594 362.496094 140.441406 364.625 C 143.992188 368.175781 146.132812 370.316406 148.109375 371.179688 C 151.6875 372.742188 154.050781 372.226562 155.140625 371.78125 C 156.070312 371.402344 156.554688 370.886719 156.695312 370.53125 L 156.75 370.398438 C 156.777344 370.335938 156.769531 370.269531 156.730469 370.214844 L 155.074219 367.738281 C 152.863281 364.4375 151.472656 360.605469 151.050781 356.652344 L 150.84375 354.703125 C 150.835938 354.617188 150.78125 354.5625 150.75 354.539062 C 150.71875 354.515625 150.652344 354.484375 150.5625 354.496094 L 146.191406 355.375 C 145.191406 355.578125 144.171875 355.375 143.324219 354.804688 C 142.472656 354.238281 141.898438 353.371094 141.703125 352.367188 Z M 152.632812 373.554688 C 151.285156 373.554688 149.589844 373.269531 147.582031 372.390625 C 145.375 371.429688 143.289062 369.347656 139.507812 365.5625 C 137.378906 363.433594 134.734375 360.792969 131.261719 357.546875 C 130.480469 356.816406 130.667969 355.59375 131.292969 354.828125 C 132.855469 352.929688 136.882812 348.398438 140.539062 347.28125 C 140.90625 347.171875 141.304688 347.21875 141.632812 347.414062 C 141.953125 347.609375 142.179688 347.929688 142.253906 348.296875 L 143 352.117188 C 143.128906 352.769531 143.503906 353.335938 144.058594 353.703125 C 144.613281 354.078125 145.277344 354.207031 145.933594 354.078125 L 150.304688 353.199219 C 150.734375 353.117188 151.179688 353.214844 151.53125 353.472656 C 151.882812 353.730469 152.113281 354.128906 152.160156 354.5625 L 152.367188 356.511719 C 152.765625 360.25 154.082031 363.875 156.171875 367 L 157.832031 369.480469 C 158.113281 369.898438 158.167969 370.425781 157.976562 370.890625 L 157.921875 371.027344 C 157.601562 371.824219 156.769531 372.542969 155.640625 373.007812 C 154.996094 373.269531 153.988281 373.554688 152.632812 373.554688 " fill-opacity="1" fill-rule="nonzero"/><path fill="#000000" d="M 153.613281 370.371094 C 153.582031 370.371094 153.546875 370.367188 153.515625 370.359375 L 152.621094 370.230469 C 149.585938 369.789062 146.71875 368.347656 144.546875 366.175781 L 134.625 356.253906 C 134.367188 355.996094 134.367188 355.578125 134.625 355.320312 C 134.882812 355.0625 135.300781 355.0625 135.558594 355.320312 L 145.484375 365.242188 C 147.453125 367.214844 150.054688 368.519531 152.8125 368.921875 L 153.707031 369.054688 C 154.066406 369.105469 154.316406 369.441406 154.265625 369.800781 C 154.21875 370.132812 153.933594 370.371094 153.613281 370.371094 " fill-opacity="1" fill-rule="nonzero"/><path fill="#000000" d="M 197.414062 230.914062 C 205.222656 233.058594 210.054688 234.371094 210.054688 234.371094 C 210.054688 234.371094 194.507812 289.664062 190.003906 303.519531 C 185.925781 316.078125 159.183594 343.433594 154.441406 348.96875 C 153.953125 349.542969 152.5625 350.117188 152.5625 350.117188 C 149.835938 350.769531 146.984375 349.703125 145.351562 347.425781 C 145.351562 347.425781 144.492188 345.507812 144.695312 344.53125 L 146.179688 337.351562 C 151.816406 314.558594 162.597656 303.277344 167.167969 279.484375 C 174.0625 243.574219 179.214844 235.464844 180.367188 232.738281 C 183.933594 224.285156 197.414062 230.914062 197.414062 230.914062 " fill-opacity="1" fill-rule="nonzero"/><path fill="#000000" d="M 223.933594 236.050781 C 224.679688 248.691406 223.863281 267.273438 222.59375 277.382812 C 219.101562 305.203125 195.898438 344.339844 191.617188 352.285156 C 191.070312 353.304688 190.0625 353.996094 188.914062 354.125 C 185.625 354.496094 184.40625 353.6875 182.722656 352.832031 C 181.515625 352.21875 180.808594 350.964844 180.78125 349.609375 C 180.203125 322.355469 186.0625 299.019531 192.136719 284.152344 C 194.480469 278.417969 197.046875 245.792969 196.730469 234.035156 L 223.933594 236.050781 " fill-opacity="1" fill-rule="nonzero"/><path fill="#caddff" d="M 181.449219 322.617188 C 181.40625 322.617188 181.363281 322.613281 181.320312 322.605469 C 180.964844 322.535156 180.730469 322.1875 180.800781 321.828125 C 183.75 306.539062 185.988281 297.722656 188.523438 291.386719 C 192.222656 282.140625 194.167969 272.515625 194.304688 262.777344 L 194.371094 257.929688 C 194.375 257.566406 194.683594 257.289062 195.042969 257.277344 C 195.40625 257.28125 195.699219 257.582031 195.695312 257.945312 L 195.625 262.796875 C 195.492188 272.695312 193.511719 282.480469 189.75 291.878906 C 187.25 298.128906 185.03125 306.878906 182.097656 322.082031 C 182.039062 322.398438 181.757812 322.617188 181.449219 322.617188 " fill-opacity="1" fill-rule="nonzero"/><path fill="#ffffff" d="M 159.859375 243.980469 C 159.65625 244.542969 160.160156 245.648438 160.089844 246.109375 C 159.828125 247.789062 157.3125 250.144531 155.460938 251.675781 C 153.988281 252.890625 153.121094 254.703125 153.113281 256.613281 C 153.113281 257.0625 153.132812 257.554688 153.160156 258.082031 C 153.222656 259.292969 152.832031 259.933594 152.304688 260.261719 C 151.265625 260.902344 149.914062 260.152344 149.785156 258.941406 C 149.496094 256.289062 149.019531 250.796875 149.769531 248.863281 C 150.261719 247.589844 151.847656 245.921875 153.335938 244.558594 C 154.796875 243.214844 155.605469 241.3125 155.597656 239.328125 C 155.570312 232.464844 159.40625 212.433594 163.917969 198.371094 L 175.191406 204.578125 C 175.191406 204.578125 167.261719 223.15625 159.859375 243.980469 " fill-opacity="1" fill-rule="nonzero"/><path fill="#000000" d="M 159.859375 243.980469 L 159.863281 243.980469 Z M 164.304688 199.339844 C 159.792969 213.6875 156.230469 232.78125 156.257812 239.324219 C 156.269531 241.503906 155.367188 243.589844 153.785156 245.042969 C 151.441406 247.195312 150.644531 248.4375 150.386719 249.101562 C 149.894531 250.371094 149.914062 254.023438 150.441406 258.871094 C 150.480469 259.242188 150.707031 259.5625 151.050781 259.730469 C 151.351562 259.878906 151.683594 259.867188 151.957031 259.699219 C 152.359375 259.449219 152.542969 258.917969 152.5 258.117188 C 152.472656 257.59375 152.449219 257.085938 152.453125 256.613281 C 152.457031 254.503906 153.402344 252.519531 155.039062 251.164062 C 157.660156 248.996094 159.265625 247.117188 159.4375 246.007812 C 159.441406 245.921875 159.371094 245.617188 159.324219 245.417969 C 159.199219 244.878906 159.054688 244.265625 159.234375 243.757812 C 165.855469 225.136719 172.980469 208.109375 174.347656 204.871094 Z M 151.480469 261.15625 C 151.136719 261.15625 150.792969 261.078125 150.46875 260.917969 C 149.71875 260.550781 149.214844 259.839844 149.125 259.011719 C 148.726562 255.335938 148.410156 250.550781 149.152344 248.621094 C 149.601562 247.46875 150.855469 245.9375 152.890625 244.070312 C 154.199219 242.867188 154.945312 241.140625 154.9375 239.332031 C 154.90625 232.574219 158.625 212.707031 163.289062 198.167969 C 163.347656 197.980469 163.488281 197.828125 163.671875 197.757812 C 163.855469 197.683594 164.0625 197.695312 164.238281 197.789062 L 175.507812 204 C 175.808594 204.164062 175.929688 204.527344 175.800781 204.835938 C 175.71875 205.023438 167.792969 223.640625 160.480469 244.203125 C 160.433594 244.351562 160.550781 244.847656 160.613281 245.117188 C 160.710938 245.53125 160.792969 245.886719 160.742188 246.210938 C 160.511719 247.699219 158.875 249.707031 155.882812 252.183594 C 154.546875 253.285156 153.777344 254.902344 153.773438 256.617188 C 153.773438 257.054688 153.796875 257.542969 153.820312 258.050781 C 153.90625 259.695312 153.230469 260.464844 152.648438 260.824219 C 152.292969 261.046875 151.890625 261.15625 151.480469 261.15625 " fill-opacity="1" fill-rule="nonzero"/><path fill="#ffffff" d="M 241.566406 184.019531 C 241.566406 184.019531 240.980469 179.925781 244.132812 177.511719 C 247.1875 175.171875 250.4375 172.730469 250.769531 178.984375 C 250.789062 179.320312 250.839844 179.652344 250.941406 179.980469 C 251.242188 180.929688 251.550781 183.554688 247.277344 186.226562 C 247.03125 186.378906 246.847656 186.621094 246.777344 186.90625 C 246.609375 187.570312 246.5625 188.253906 246.640625 188.933594 C 247.179688 193.652344 249.089844 213.535156 243.722656 218.25 C 237.617188 223.609375 224.808594 208.121094 224.808594 208.121094 L 234.339844 197.847656 C 234.339844 197.847656 237.621094 202.675781 238.367188 202.824219 C 239.109375 202.972656 241.507812 184.441406 241.566406 184.019531 " fill-opacity="1" fill-rule="nonzero"/><path fill="#000000" d="M 238.578125 202.203125 Z M 225.695312 208.140625 C 227.429688 210.136719 234.808594 218.265625 240.21875 218.699219 C 241.449219 218.796875 242.449219 218.488281 243.285156 217.75 C 247.292969 214.234375 247.308594 200.597656 245.984375 189.007812 C 245.898438 188.246094 245.949219 187.488281 246.132812 186.746094 C 246.246094 186.296875 246.527344 185.914062 246.929688 185.664062 C 250.78125 183.257812 250.578125 181.023438 250.3125 180.179688 C 250.199219 179.816406 250.132812 179.4375 250.109375 179.019531 C 250.011719 177.183594 249.636719 176.023438 249.046875 175.753906 C 248.09375 175.3125 246.035156 176.886719 244.535156 178.039062 C 241.722656 180.191406 242.21875 183.886719 242.222656 183.925781 L 242.238281 184.019531 L 242.191406 184.363281 C 239.773438 202.648438 239.136719 203.105469 238.796875 203.351562 C 238.628906 203.46875 238.429688 203.511719 238.234375 203.472656 C 237.996094 203.425781 237.296875 203.285156 234.261719 198.902344 Z M 240.644531 220.039062 C 240.472656 220.039062 240.292969 220.03125 240.113281 220.015625 C 233.414062 219.484375 224.667969 208.992188 224.296875 208.542969 L 223.929688 208.097656 L 234.421875 196.789062 L 234.886719 197.476562 C 235.996094 199.105469 237.355469 200.941406 238.113281 201.773438 C 238.570312 200.027344 239.484375 194.734375 240.878906 184.191406 L 240.902344 184.015625 C 240.828125 183.332031 240.550781 179.421875 243.730469 176.988281 C 245.792969 175.410156 247.925781 173.777344 249.601562 174.550781 C 250.71875 175.066406 251.296875 176.460938 251.429688 178.949219 C 251.445312 179.253906 251.496094 179.527344 251.574219 179.78125 C 251.933594 180.921875 252.265625 183.886719 247.628906 186.785156 C 247.523438 186.851562 247.445312 186.953125 247.417969 187.066406 C 247.269531 187.65625 247.230469 188.257812 247.296875 188.859375 C 247.960938 194.644531 249.683594 213.894531 244.15625 218.746094 C 243.179688 219.605469 242 220.039062 240.644531 220.039062 " fill-opacity="1" fill-rule="nonzero"/><path fill="#db7803" d="M 184.21875 170.632812 C 196.113281 166.84375 216.539062 168.648438 222.632812 173.277344 C 230.835938 179.503906 234.578125 190.394531 235.917969 195.351562 C 236.363281 196.996094 236.296875 198.734375 235.746094 200.347656 C 233.941406 205.613281 229.433594 217.449219 226.296875 214.179688 C 223.425781 211.183594 222.164062 209.109375 222.40625 211.515625 C 223.042969 217.890625 224.144531 240.828125 224.144531 240.828125 C 222.128906 240.855469 220.453125 242.394531 220.257812 244.402344 L 219.0625 256.660156 C 218.972656 257.5625 218.007812 258.09375 217.199219 257.679688 C 210.714844 254.332031 187.175781 242.179688 177.597656 236.984375 C 176.449219 236.359375 175.824219 235.078125 176.046875 233.792969 C 177.171875 227.316406 180.933594 208.527344 179.699219 204.75 C 179.421875 203.902344 177.378906 207.414062 174.902344 209.507812 C 174.503906 209.84375 173.929688 209.859375 173.519531 209.539062 L 162.1875 200.582031 C 161.179688 199.789062 160.820312 198.433594 161.296875 197.246094 C 163.652344 191.40625 171.382812 174.71875 184.21875 170.632812 " fill-opacity="1" fill-rule="nonzero"/><path fill="#ffffff" d="M 219.023438 147.8125 C 220.03125 148.15625 220.5 150.230469 220.660156 151.28125 C 221.183594 154.75 219.375 162.886719 216.859375 163.417969 C 214.382812 163.941406 214.59375 162.824219 212.707031 163.871094 C 211.199219 164.707031 211 166.242188 210.316406 169.546875 C 210.273438 169.757812 214.605469 170.980469 214.683594 171.179688 C 214.855469 171.636719 212.175781 177.253906 203.835938 176.203125 C 195.9375 175.207031 194.835938 169.851562 194.804688 169.476562 C 194.789062 169.25 200.769531 168.835938 200.875 168.621094 C 202.261719 165.785156 203.285156 160.847656 203.285156 160.847656 C 203.285156 160.847656 208.417969 144.207031 219.023438 147.8125 " fill-opacity="1" fill-rule="nonzero"/><path fill="#000000" d="M 214.03125 171.203125 Z M 195.605469 169.960938 C 196.046875 171.308594 197.769531 174.769531 203.917969 175.546875 C 210.535156 176.378906 213.308594 172.820312 213.90625 171.554688 C 213.511719 171.410156 212.917969 171.21875 212.441406 171.058594 C 209.859375 170.214844 209.527344 170.105469 209.667969 169.417969 L 209.824219 168.664062 C 210.410156 165.792969 210.730469 164.210938 212.382812 163.292969 C 213.53125 162.65625 214.089844 162.691406 214.8125 162.820312 C 215.238281 162.898438 215.722656 162.980469 216.722656 162.769531 C 218.625 162.367188 220.53125 154.859375 220.003906 151.382812 C 219.738281 149.625 219.203125 148.570312 218.808594 148.4375 C 216.625 147.695312 214.519531 147.828125 212.550781 148.832031 C 207.003906 151.664062 204.105469 160.457031 203.925781 161.011719 C 203.828125 161.492188 202.828125 166.125 201.46875 168.910156 C 201.265625 169.332031 201.164062 169.355469 197.976562 169.691406 C 197.195312 169.773438 196.210938 169.878906 195.605469 169.960938 Z M 205.835938 176.992188 C 205.179688 176.992188 204.492188 176.949219 203.753906 176.855469 C 195.035156 175.757812 194.152344 169.589844 194.148438 169.53125 C 194.089844 168.824219 194.761719 168.738281 195.6875 168.617188 C 196.277344 168.539062 197.058594 168.457031 197.839844 168.375 C 198.734375 168.28125 199.90625 168.15625 200.402344 168.070312 C 201.675781 165.308594 202.628906 160.757812 202.640625 160.710938 L 202.65625 160.652344 C 202.78125 160.253906 205.746094 150.824219 211.949219 147.65625 C 214.246094 146.480469 216.699219 146.324219 219.234375 147.183594 C 220.585938 147.644531 221.117188 149.886719 221.3125 151.183594 C 221.804688 154.429688 220.183594 163.390625 216.996094 164.0625 C 215.742188 164.332031 215.070312 164.210938 214.582031 164.121094 C 214.09375 164.035156 213.851562 163.992188 213.027344 164.449219 C 211.960938 165.042969 211.703125 166.0625 211.117188 168.929688 L 211.0625 169.195312 C 211.515625 169.367188 212.292969 169.621094 212.855469 169.804688 C 214.992188 170.503906 215.15625 170.566406 215.300781 170.945312 C 215.578125 171.675781 214.542969 173.046875 214.332031 173.3125 C 213.40625 174.496094 210.84375 176.992188 205.835938 176.992188 " fill-opacity="1" fill-rule="nonzero"/><path fill="#000000" d="M 214.503906 156.734375 C 214.476562 156.734375 214.445312 156.730469 214.414062 156.726562 C 212.71875 156.496094 211.769531 154.710938 211.582031 153.039062 C 211.40625 151.5 211.875 150.285156 212.769531 149.949219 C 214.363281 149.347656 215.621094 151.054688 216.113281 152.160156 C 216.265625 152.492188 216.113281 152.882812 215.78125 153.03125 C 215.449219 153.179688 215.058594 153.035156 214.910156 152.699219 C 214.734375 152.3125 213.9375 150.925781 213.234375 151.1875 C 213.0625 151.253906 212.777344 151.835938 212.898438 152.890625 C 213.023438 154.015625 213.609375 155.28125 214.59375 155.417969 C 214.953125 155.464844 215.207031 155.800781 215.15625 156.164062 C 215.113281 156.492188 214.832031 156.734375 214.503906 156.734375 " fill-opacity="1" fill-rule="nonzero"/><path fill="#000000" d="M 222.882812 144.472656 C 223.328125 146.90625 220.867188 147.460938 218.910156 148.976562 C 216.890625 150.546875 216.722656 152.726562 215.753906 153.035156 C 215.101562 153.242188 214.105469 149.953125 213.886719 149.980469 C 212.652344 150.144531 212.355469 150.765625 212.089844 151.0625 C 211.019531 152.25 221.65625 174.699219 216.101562 189.257812 C 212.558594 198.542969 203.460938 202.664062 183.234375 200.816406 C 166.308594 199.269531 161.828125 182.273438 164.828125 176.039062 C 172.613281 159.859375 188.867188 174.710938 192.699219 150.589844 C 195.382812 133.679688 211.332031 126.148438 221.078125 139.875 C 222.0625 141.257812 222.597656 142.929688 222.882812 144.472656 " fill-opacity="1" fill-rule="nonzero"/><path fill="#ffffff" d="M 50.046875 340.695312 L 47.722656 357.003906 L 41.78125 357.027344 L 41.5 340.988281 L 50.046875 340.695312 " fill-opacity="1" fill-rule="nonzero"/><path fill="#000000" d="M 42.171875 341.625 L 42.429688 356.363281 L 47.148438 356.34375 L 49.28125 341.386719 Z M 41.78125 357.6875 C 41.417969 357.6875 41.125 357.402344 41.117188 357.039062 L 40.839844 341 C 40.832031 340.636719 41.117188 340.339844 41.476562 340.328125 L 50.023438 340.035156 C 50.21875 340.019531 50.40625 340.109375 50.539062 340.253906 C 50.667969 340.402344 50.726562 340.597656 50.699219 340.789062 L 48.378906 357.097656 C 48.332031 357.421875 48.054688 357.664062 47.726562 357.667969 L 41.78125 357.6875 " fill-opacity="1" fill-rule="nonzero"/><path fill="#ffffff" d="M 47.921875 372.59375 C 45.59375 372.84375 42.117188 372.941406 37.476562 372.535156 C 35.820312 372.390625 34.648438 370.851562 34.917969 369.207031 C 35.636719 364.78125 37.648438 356.976562 40.816406 353.394531 L 42.382812 355.625 L 43.3125 353.320312 C 43.460938 353.070312 47.402344 352.902344 47.484375 353.371094 L 47.722656 355.625 L 49.957031 353.117188 L 49.835938 361.347656 C 49.820312 362.253906 49.910156 363.164062 50.09375 364.050781 L 50.679688 366.894531 C 51.035156 368.609375 50.597656 370.421875 49.398438 371.695312 C 48.933594 372.195312 48.414062 372.542969 47.921875 372.59375 " fill-opacity="1" fill-rule="nonzero"/><path fill="#000000" d="M 40.777344 354.488281 C 37.96875 358.257812 36.195312 365.460938 35.566406 369.316406 C 35.46875 369.925781 35.628906 370.554688 36.007812 371.042969 C 36.382812 371.527344 36.925781 371.824219 37.535156 371.875 C 42.476562 372.3125 45.875 372.148438 47.851562 371.9375 C 48.144531 371.90625 48.535156 371.652344 48.917969 371.242188 C 49.9375 370.160156 50.351562 368.582031 50.03125 367.03125 L 49.445312 364.1875 C 49.25 363.25 49.160156 362.292969 49.175781 361.335938 L 49.269531 354.882812 L 48.214844 356.066406 C 48.042969 356.261719 47.769531 356.335938 47.519531 356.253906 C 47.269531 356.171875 47.09375 355.953125 47.066406 355.695312 L 46.863281 353.800781 C 46.183594 353.691406 44.476562 353.730469 43.8125 353.84375 L 42.996094 355.871094 C 42.90625 356.097656 42.699219 356.253906 42.457031 356.28125 C 42.21875 356.308594 41.980469 356.203125 41.839844 356.003906 Z M 47.921875 372.59375 L 47.925781 372.59375 Z M 43.410156 373.472656 C 41.734375 373.472656 39.742188 373.398438 37.421875 373.195312 C 36.441406 373.109375 35.566406 372.632812 34.964844 371.855469 C 34.359375 371.078125 34.105469 370.074219 34.261719 369.101562 C 34.453125 367.933594 36.234375 357.574219 40.320312 352.953125 C 40.457031 352.800781 40.648438 352.722656 40.855469 352.730469 C 41.054688 352.742188 41.242188 352.847656 41.359375 353.015625 L 42.226562 354.246094 L 42.699219 353.070312 C 42.710938 353.039062 42.726562 353.007812 42.746094 352.976562 C 43.234375 352.160156 46.925781 352.46875 47.167969 352.515625 C 47.382812 352.554688 48.03125 352.675781 48.136719 353.257812 C 48.136719 353.273438 48.140625 353.285156 48.140625 353.304688 L 48.222656 354.070312 L 49.464844 352.679688 C 49.648438 352.472656 49.941406 352.402344 50.199219 352.503906 C 50.457031 352.601562 50.625 352.851562 50.621094 353.128906 L 50.496094 361.355469 C 50.484375 362.214844 50.566406 363.078125 50.738281 363.917969 L 51.328125 366.761719 C 51.734375 368.734375 51.195312 370.75 49.882812 372.148438 C 49.265625 372.804688 48.613281 373.1875 47.992188 373.253906 C 46.894531 373.371094 45.371094 373.472656 43.410156 373.472656 " fill-opacity="1" fill-rule="nonzero"/><path fill="#000000" d="M 43.671875 370.5625 C 42.035156 370.5625 40 370.4375 37.695312 370.03125 C 37.335938 369.96875 37.097656 369.625 37.160156 369.269531 C 37.222656 368.90625 37.566406 368.667969 37.925781 368.730469 C 43.621094 369.730469 47.695312 368.9375 47.734375 368.929688 C 48.09375 368.859375 48.441406 369.085938 48.515625 369.445312 C 48.585938 369.804688 48.355469 370.152344 47.996094 370.226562 C 47.890625 370.246094 46.277344 370.5625 43.671875 370.5625 " fill-opacity="1" fill-rule="nonzero"/><path fill="#000000" d="M 45.574219 364.3125 L 40.183594 364.3125 C 39.816406 364.3125 39.519531 364.015625 39.519531 363.648438 C 39.519531 363.285156 39.816406 362.988281 40.183594 362.988281 L 45.574219 362.988281 C 45.9375 362.988281 46.234375 363.285156 46.234375 363.648438 C 46.234375 364.015625 45.9375 364.3125 45.574219 364.3125 " fill-opacity="1" fill-rule="nonzero"/><path fill="#ffffff" d="M 92.703125 342.152344 L 94.792969 361.160156 L 102.789062 362.835938 L 102.300781 340.546875 L 92.703125 342.152344 " fill-opacity="1" fill-rule="nonzero"/><path fill="#000000" d="M 95.398438 360.609375 L 102.109375 362.015625 L 101.65625 341.324219 L 93.429688 342.703125 Z M 102.789062 363.496094 C 102.742188 363.496094 102.699219 363.488281 102.652344 363.480469 L 94.660156 361.804688 C 94.378906 361.75 94.167969 361.515625 94.136719 361.234375 L 92.046875 342.222656 C 92.007812 341.875 92.25 341.558594 92.59375 341.5 L 102.191406 339.894531 C 102.382812 339.863281 102.574219 339.917969 102.722656 340.039062 C 102.871094 340.160156 102.957031 340.339844 102.964844 340.53125 L 103.449219 362.816406 C 103.453125 363.019531 103.367188 363.214844 103.210938 363.34375 C 103.089844 363.441406 102.941406 363.496094 102.789062 363.496094 " fill-opacity="1" fill-rule="nonzero"/><path fill="#ffffff" d="M 91.414062 370.222656 C 91.238281 366.890625 91.234375 360.757812 93.261719 357.800781 L 99.65625 360.082031 L 99.65625 358.714844 C 99.65625 358.273438 99.96875 357.910156 100.371094 357.886719 L 103.9375 357.683594 C 105.269531 357.605469 106.59375 357.882812 107.8125 358.480469 C 111.398438 360.242188 122.308594 364.765625 123.820312 369.851562 C 124.265625 371.351562 123.09375 372.847656 121.527344 372.894531 C 117.9375 372.996094 109.304688 373.109375 93.8125 372.578125 C 92.523438 372.535156 91.480469 371.511719 91.414062 370.222656 " fill-opacity="1" fill-rule="nonzero"/><path fill="#000000" d="M 93.542969 358.605469 C 92.332031 360.789062 91.796875 364.953125 92.074219 370.1875 C 92.125 371.140625 92.882812 371.886719 93.835938 371.917969 C 109.167969 372.441406 117.753906 372.339844 121.511719 372.230469 C 122.070312 372.214844 122.597656 371.933594 122.929688 371.480469 C 123.238281 371.054688 123.332031 370.527344 123.1875 370.039062 C 121.9375 365.847656 113.273438 361.78125 109.105469 359.828125 C 108.492188 359.539062 107.953125 359.285156 107.519531 359.074219 C 106.40625 358.527344 105.179688 358.273438 103.976562 358.34375 L 100.410156 358.546875 C 100.378906 358.550781 100.320312 358.609375 100.320312 358.714844 L 100.320312 360.082031 C 100.320312 360.292969 100.214844 360.496094 100.039062 360.621094 C 99.863281 360.742188 99.636719 360.777344 99.433594 360.703125 Z M 114.375 373.640625 C 109.613281 373.640625 102.882812 373.550781 93.792969 373.242188 C 92.144531 373.183594 90.839844 371.902344 90.75 370.257812 C 90.570312 366.800781 90.582031 360.539062 92.714844 357.429688 C 92.886719 357.179688 93.199219 357.078125 93.484375 357.179688 L 98.996094 359.140625 L 98.996094 358.714844 C 98.996094 357.921875 99.582031 357.269531 100.335938 357.226562 L 103.902344 357.023438 C 105.332031 356.941406 106.785156 357.238281 108.101562 357.886719 C 108.53125 358.097656 109.0625 358.34375 109.667969 358.632812 C 114.339844 360.820312 123.039062 364.902344 124.453125 369.660156 C 124.71875 370.546875 124.550781 371.492188 124 372.257812 C 123.429688 373.039062 122.515625 373.527344 121.546875 373.554688 C 120.007812 373.597656 117.660156 373.640625 114.375 373.640625 " fill-opacity="1" fill-rule="nonzero"/><path fill="#000000" d="M 111.898438 370.484375 C 107.355469 370.484375 101.21875 370.285156 94.511719 369.507812 C 94.148438 369.464844 93.890625 369.136719 93.929688 368.773438 C 93.972656 368.410156 94.300781 368.148438 94.664062 368.191406 C 108.269531 369.769531 119.515625 368.949219 119.628906 368.941406 C 119.988281 368.914062 120.308594 369.183594 120.335938 369.550781 C 120.363281 369.914062 120.09375 370.230469 119.726562 370.257812 C 119.667969 370.261719 116.660156 370.484375 111.898438 370.484375 " fill-opacity="1" fill-rule="nonzero"/><path fill="#000000" d="M 109.914062 365.042969 C 109.78125 365.042969 109.644531 365.003906 109.527344 364.917969 L 103.371094 360.488281 C 103.074219 360.277344 103.007812 359.863281 103.21875 359.566406 C 103.433594 359.269531 103.847656 359.203125 104.144531 359.417969 L 110.300781 363.84375 C 110.597656 364.058594 110.664062 364.472656 110.453125 364.769531 C 110.324219 364.945312 110.121094 365.042969 109.914062 365.042969 " fill-opacity="1" fill-rule="nonzero"/><path fill="#db7803" d="M 95.195312 218.828125 C 95.195312 218.828125 106.65625 297.445312 104.214844 349.917969 L 100.640625 350.277344 C 98.71875 350.46875 96.785156 350.515625 94.851562 350.417969 L 91.460938 350.246094 C 91.460938 350.246094 77.796875 270.539062 70.972656 257.300781 C 70.972656 257.300781 52.414062 328.1875 51.699219 347.390625 C 51.699219 347.390625 43.449219 348.21875 40.160156 347.039062 C 38.394531 328.503906 37.886719 309.320312 37.796875 297.277344 C 37.542969 262.808594 40.835938 247.152344 42.644531 239.722656 C 44.300781 232.902344 46.082031 227.363281 47.378906 223.609375 L 51.71875 211.234375 L 95.195312 218.828125 " fill-opacity="1" fill-rule="nonzero"/><path fill="#000000" d="M 92.023438 349.613281 L 94.886719 349.757812 C 96.777344 349.851562 98.691406 349.804688 100.574219 349.617188 L 103.582031 349.316406 C 105.789062 299.621094 95.550781 226.011719 94.609375 219.394531 L 52.160156 211.984375 L 48.003906 223.832031 C 46.191406 229.0625 44.601562 234.464844 43.285156 239.878906 C 41.097656 248.878906 38.21875 264.617188 38.457031 297.273438 C 38.53125 307.28125 38.929688 326.925781 40.777344 346.539062 C 43.578125 347.320312 49.253906 346.933594 51.0625 346.78125 C 52.109375 326.914062 70.148438 257.835938 70.332031 257.132812 C 70.402344 256.867188 70.625 256.675781 70.898438 256.644531 C 71.171875 256.613281 71.433594 256.753906 71.558594 256.996094 C 78.136719 269.761719 90.730469 342.109375 92.023438 349.613281 Z M 96.789062 351.128906 C 96.132812 351.128906 95.476562 351.113281 94.820312 351.078125 L 91.429688 350.910156 C 91.121094 350.894531 90.863281 350.664062 90.808594 350.359375 C 90.679688 349.59375 78.054688 276.242188 71.140625 259.28125 C 68.25 270.472656 53 330.214844 52.359375 347.414062 C 52.347656 347.742188 52.09375 348.015625 51.765625 348.046875 C 51.421875 348.082031 43.324219 348.878906 39.9375 347.65625 C 39.695312 347.574219 39.527344 347.355469 39.503906 347.097656 C 37.613281 327.292969 37.210938 307.382812 37.136719 297.28125 C 36.894531 264.480469 39.796875 248.632812 42 239.566406 C 43.328125 234.113281 44.925781 228.671875 46.753906 223.394531 L 51.09375 211.015625 C 51.203125 210.710938 51.515625 210.523438 51.832031 210.582031 L 95.308594 218.175781 C 95.59375 218.226562 95.808594 218.449219 95.851562 218.734375 C 95.964844 219.519531 107.292969 298.011719 104.875 349.949219 C 104.859375 350.277344 104.605469 350.542969 104.28125 350.574219 L 100.707031 350.933594 C 99.410156 351.0625 98.097656 351.128906 96.789062 351.128906 " fill-opacity="1" fill-rule="nonzero"/><path fill="#000000" d="M 70.328125 260.265625 C 70.269531 260.265625 70.210938 260.257812 70.152344 260.242188 C 69.800781 260.144531 69.59375 259.78125 69.691406 259.425781 L 71.597656 252.488281 C 72.179688 250.371094 73.875 248.78125 76.027344 248.335938 L 77.808594 247.96875 C 78.167969 247.890625 78.515625 248.125 78.589844 248.480469 C 78.664062 248.839844 78.433594 249.1875 78.078125 249.261719 L 76.292969 249.632812 C 74.632812 249.972656 73.320312 251.203125 72.871094 252.839844 L 70.964844 259.78125 C 70.886719 260.070312 70.617188 260.265625 70.328125 260.265625 " fill-opacity="1" fill-rule="nonzero"/><path fill="#000000" d="M 45.140625 247.339844 C 44.824219 247.339844 44.542969 247.109375 44.492188 246.785156 C 44.429688 246.425781 44.671875 246.085938 45.035156 246.027344 C 54.878906 244.386719 56.847656 236.707031 56.867188 236.628906 C 56.953125 236.273438 57.308594 236.058594 57.667969 236.140625 C 58.019531 236.226562 58.238281 236.585938 58.152344 236.941406 C 58.132812 237.027344 55.949219 245.546875 45.25 247.332031 C 45.214844 247.335938 45.179688 247.339844 45.140625 247.339844 " fill-opacity="1" fill-rule="nonzero"/><path fill="#000000" d="M 95.710938 242.171875 C 95.625 242.171875 95.535156 242.15625 95.449219 242.117188 C 89.144531 239.378906 89.296875 233.382812 89.300781 233.324219 C 89.316406 232.957031 89.613281 232.671875 89.988281 232.6875 C 90.351562 232.699219 90.636719 233.007812 90.625 233.371094 C 90.617188 233.585938 90.523438 238.539062 95.976562 240.90625 C 96.3125 241.050781 96.464844 241.441406 96.320312 241.773438 C 96.210938 242.023438 95.96875 242.171875 95.710938 242.171875 " fill-opacity="1" fill-rule="nonzero"/><path fill="#000000" d="M 94.273438 153.394531 C 86.691406 152.539062 70.511719 151.003906 59.382812 152.023438 C 56.023438 152.332031 51.171875 154.382812 48.617188 156.585938 C 41.09375 163.082031 26.894531 177.386719 24.519531 194.550781 C 24.175781 197.054688 25.816406 199.40625 28.285156 199.953125 L 41.40625 202.859375 C 41.40625 202.859375 36.175781 223.472656 36.59375 227.03125 C 37.015625 230.589844 47.855469 236.648438 61.40625 231.679688 C 71.976562 227.804688 86.933594 224.722656 96.429688 228.066406 C 96.523438 228.097656 97.429688 235.394531 97.523438 235.410156 C 100.574219 235.851562 103.644531 234.664062 103.574219 230.378906 L 102.128906 208.121094 L 119.511719 205.828125 L 121.066406 205.308594 C 125.765625 203.742188 128.191406 198.5625 126.382812 193.949219 C 122.296875 183.554688 116.136719 166.722656 104.722656 157.429688 C 102.28125 155.441406 97.402344 153.746094 94.273438 153.394531 " fill-opacity="1" fill-rule="nonzero"/><path fill="#fbb460" d="M 86.371094 221.890625 L 113.539062 221.890625 C 114.71875 221.890625 115.746094 221.085938 116.03125 219.941406 L 125.429688 182.042969 C 125.832031 180.421875 124.605469 178.855469 122.9375 178.855469 L 95.769531 178.855469 C 94.589844 178.855469 93.5625 179.660156 93.277344 180.804688 L 83.878906 218.707031 C 83.476562 220.324219 84.703125 221.890625 86.371094 221.890625 " fill-opacity="1" fill-rule="nonzero"/><path fill="#ffffff" d="M 121.011719 198.226562 L 120.097656 202.050781 L 116.816406 200.957031 C 115.003906 200.355469 113.269531 199.550781 111.636719 198.5625 L 109.753906 197.421875 C 108.34375 196.566406 106.519531 197.234375 105.972656 198.789062 C 104.808594 202.082031 105.039062 207.605469 116.871094 211.078125 C 123.398438 212.992188 125.269531 204.628906 124.421875 199.980469 C 124.207031 198.792969 123.625 198.035156 123.023438 197.554688 C 122.308594 196.980469 121.238281 197.339844 121.011719 198.226562 " fill-opacity="1" fill-rule="nonzero"/><path fill="#000000" d="M 108.417969 197.707031 C 108.199219 197.707031 107.984375 197.746094 107.773438 197.820312 C 107.21875 198.019531 106.792969 198.449219 106.59375 199.007812 C 105.964844 200.796875 106.042969 202.488281 106.832031 204.027344 C 108.199219 206.695312 111.636719 208.855469 117.054688 210.441406 C 118.792969 210.953125 120.261719 210.6875 121.410156 209.652344 C 123.617188 207.667969 124.34375 203.234375 123.773438 200.097656 C 123.617188 199.246094 123.226562 198.5625 122.613281 198.070312 C 122.382812 197.886719 122.140625 197.9375 122.046875 197.96875 C 121.953125 198 121.726562 198.105469 121.65625 198.386719 L 120.742188 202.207031 C 120.699219 202.386719 120.582031 202.539062 120.421875 202.628906 C 120.257812 202.722656 120.066406 202.738281 119.890625 202.679688 L 116.605469 201.585938 C 114.753906 200.96875 112.964844 200.140625 111.292969 199.128906 L 109.410156 197.984375 C 109.105469 197.800781 108.761719 197.707031 108.417969 197.707031 Z M 118.683594 212.015625 C 118.042969 212.015625 117.375 211.914062 116.683594 211.714844 C 110.902344 210.019531 107.191406 207.632812 105.652344 204.628906 C 104.707031 202.78125 104.601562 200.683594 105.347656 198.566406 C 105.675781 197.632812 106.398438 196.90625 107.328125 196.574219 C 108.25 196.246094 109.257812 196.347656 110.09375 196.855469 L 111.980469 197.996094 C 113.566406 198.960938 115.261719 199.742188 117.023438 200.332031 L 119.625 201.199219 L 120.367188 198.074219 C 120.371094 198.070312 120.371094 198.066406 120.371094 198.0625 C 120.535156 197.425781 121.003906 196.925781 121.625 196.714844 C 122.246094 196.507812 122.925781 196.625 123.4375 197.039062 C 124.308594 197.738281 124.859375 198.6875 125.074219 199.863281 C 125.703125 203.308594 124.941406 208.257812 122.296875 210.636719 C 121.277344 211.550781 120.050781 212.015625 118.683594 212.015625 " fill-opacity="1" fill-rule="nonzero"/><path fill="#ffffff" d="M 58.183594 176.285156 C 56.820312 177.675781 55.277344 178.871094 53.585938 179.835938 C 47.882812 183.082031 34.257812 190.945312 30.867188 193.839844 C 26.550781 197.53125 24.484375 198.90625 27.953125 208.398438 C 33.609375 223.867188 59.988281 184.152344 59.988281 184.152344 C 59.988281 184.152344 67.738281 185.554688 69.476562 178.765625 C 69.476562 178.765625 73.515625 179.523438 75.199219 178.792969 C 76.488281 178.234375 76.433594 176.042969 74.710938 175.800781 L 63.566406 173.726562 C 62.03125 173.449219 60.460938 173.953125 59.371094 175.070312 L 58.183594 176.285156 " fill-opacity="1" fill-rule="nonzero"/><path fill="#000000" d="M 58.183594 176.285156 L 58.1875 176.285156 Z M 62.734375 174.3125 C 61.65625 174.3125 60.613281 174.742188 59.84375 175.53125 L 58.65625 176.75 C 57.253906 178.183594 55.65625 179.414062 53.914062 180.410156 C 48.226562 183.648438 34.640625 191.484375 31.296875 194.34375 L 30.914062 194.667969 C 26.992188 198.011719 25.367188 199.394531 28.574219 208.171875 C 29.28125 210.101562 30.3125 211.121094 31.730469 211.289062 C 31.875 211.304688 32.023438 211.3125 32.175781 211.3125 C 39.523438 211.316406 54.273438 191.5625 59.4375 183.785156 C 59.585938 183.566406 59.847656 183.453125 60.109375 183.503906 C 60.398438 183.554688 67.273438 184.703125 68.835938 178.601562 C 68.925781 178.261719 69.257812 178.050781 69.597656 178.117188 C 70.667969 178.316406 73.707031 178.71875 74.9375 178.1875 C 75.335938 178.011719 75.46875 177.5625 75.421875 177.214844 C 75.390625 176.972656 75.242188 176.546875 74.617188 176.457031 L 63.445312 174.375 C 63.207031 174.332031 62.96875 174.3125 62.734375 174.3125 Z M 32.140625 212.636719 C 31.949219 212.636719 31.757812 212.625 31.574219 212.601562 C 29.640625 212.375 28.214844 211.035156 27.332031 208.625 C 23.941406 199.355469 25.613281 197.449219 30.058594 193.664062 L 30.4375 193.335938 C 33.871094 190.40625 47.539062 182.515625 53.257812 179.257812 C 54.894531 178.328125 56.394531 177.171875 57.707031 175.824219 L 58.898438 174.605469 C 60.140625 173.335938 61.929688 172.757812 63.683594 173.074219 L 74.832031 175.152344 C 75.839844 175.292969 76.597656 176.035156 76.734375 177.039062 C 76.871094 178.046875 76.347656 179.015625 75.460938 179.398438 C 73.996094 180.035156 71.199219 179.707031 69.949219 179.515625 C 68.089844 185.238281 62.003906 185.035156 60.3125 184.859375 C 58.050781 188.21875 41.292969 212.632812 32.140625 212.636719 " fill-opacity="1" fill-rule="nonzero"/><path fill="#ffffff" d="M 84.003906 138.820312 L 84.839844 150.421875 C 85.023438 151.929688 86.109375 153.175781 87.582031 153.558594 L 91.660156 154.621094 L 89.015625 156.636719 C 83.152344 161.097656 75.03125 161.105469 69.160156 156.652344 L 64.972656 153.480469 L 70.039062 152.347656 C 71.492188 152.023438 72.609375 150.855469 72.875 149.390625 L 75.113281 134.039062 L 84.003906 138.820312 " fill-opacity="1" fill-rule="nonzero"/><path fill="#000000" d="M 66.507812 153.8125 L 69.558594 156.125 C 75.171875 160.382812 83.007812 160.378906 88.613281 156.109375 L 90.175781 154.917969 L 87.414062 154.199219 C 85.667969 153.746094 84.402344 152.292969 84.183594 150.503906 L 83.371094 139.230469 L 75.628906 135.066406 L 73.53125 149.484375 C 73.214844 151.242188 71.902344 152.609375 70.183594 152.992188 Z M 79.074219 160.636719 C 75.4375 160.636719 71.796875 159.484375 68.757812 157.179688 L 64.574219 154.007812 C 64.367188 153.851562 64.273438 153.589844 64.328125 153.335938 C 64.382812 153.085938 64.578125 152.890625 64.832031 152.832031 L 69.894531 151.703125 C 71.09375 151.433594 72.007812 150.480469 72.226562 149.273438 L 74.457031 133.941406 C 74.488281 133.726562 74.621094 133.542969 74.816406 133.445312 C 75.007812 133.347656 75.234375 133.351562 75.425781 133.453125 L 84.320312 138.234375 C 84.519531 138.34375 84.648438 138.546875 84.664062 138.769531 L 85.5 150.375 C 85.648438 151.589844 86.53125 152.601562 87.75 152.917969 L 91.824219 153.980469 C 92.070312 154.046875 92.257812 154.242188 92.308594 154.492188 C 92.355469 154.738281 92.261719 154.996094 92.058594 155.148438 L 89.414062 157.160156 C 86.371094 159.476562 82.722656 160.636719 79.074219 160.636719 " fill-opacity="1" fill-rule="nonzero"/><path fill="#000000" d="M 97.191406 122.671875 C 94.398438 121.195312 96.648438 125.792969 87.472656 117.851562 C 83.816406 114.6875 83.6875 120.59375 82.734375 119.773438 C 79.226562 116.753906 79.351562 116.851562 77.136719 116.46875 C 75.671875 116.214844 73.710938 118.238281 73.125 120.152344 C 72.359375 122.675781 74.039062 124.1875 73.464844 130.007812 C 73.0625 134.09375 71.777344 136.101562 72.953125 137.261719 C 74.144531 138.4375 76.082031 137.003906 77.480469 138.183594 C 79.289062 139.71875 77.222656 143.128906 78.558594 145.542969 C 79.402344 147.066406 82.167969 148.859375 87.984375 148.71875 C 88.925781 148.695312 89.726562 148.003906 89.878906 147.070312 C 90.074219 145.871094 90.316406 144.359375 90.425781 142.894531 C 90.945312 135.917969 89.445312 133.601562 90.921875 132.40625 C 93.191406 130.578125 97.042969 133.984375 98.675781 132.378906 C 100.375 130.710938 101.007812 124.691406 97.191406 122.671875 " fill-opacity="1" fill-rule="nonzero"/><path fill="#ffffff" d="M 83.3125 126.582031 L 83.429688 128.488281 C 83.484375 129.382812 83.476562 130.285156 83.40625 131.179688 C 83.273438 132.863281 83.074219 135.761719 83.082031 137.390625 C 83.097656 139.785156 90.496094 140.253906 90.496094 140.253906 L 91.4375 139.207031 L 92.304688 139.246094 C 92.472656 139.25 92.644531 139.222656 92.792969 139.144531 C 93.167969 138.953125 93.351562 138.550781 93.289062 138.164062 C 92.9375 136.046875 92.328125 131.378906 93.003906 127.75 C 93.003906 127.75 88.890625 124.410156 83.3125 126.582031 " fill-opacity="1" fill-rule="nonzero"/><path fill="#000000" d="M 84.003906 127.035156 L 84.089844 128.449219 C 84.144531 129.371094 84.136719 130.3125 84.066406 131.234375 C 83.941406 132.835938 83.734375 135.769531 83.742188 137.386719 C 83.75 138.503906 87.410156 139.347656 90.222656 139.570312 L 90.945312 138.765625 C 91.078125 138.617188 91.261719 138.535156 91.464844 138.546875 L 92.332031 138.582031 C 92.398438 138.585938 92.453125 138.578125 92.488281 138.558594 C 92.621094 138.488281 92.652344 138.359375 92.636719 138.273438 C 92.253906 135.957031 91.714844 131.621094 92.28125 128.042969 C 91.3125 127.390625 88.148438 125.625 84.003906 127.035156 Z M 90.496094 140.914062 C 90.484375 140.914062 90.46875 140.914062 90.457031 140.914062 C 89.117188 140.828125 82.4375 140.261719 82.421875 137.394531 C 82.410156 135.726562 82.621094 132.753906 82.746094 131.132812 C 82.8125 130.269531 82.820312 129.390625 82.769531 128.527344 L 82.652344 126.621094 C 82.632812 126.335938 82.804688 126.070312 83.074219 125.964844 C 88.941406 123.679688 93.242188 127.089844 93.421875 127.238281 C 93.609375 127.390625 93.699219 127.632812 93.65625 127.871094 C 92.984375 131.457031 93.632812 136.1875 93.941406 138.054688 C 94.054688 138.738281 93.71875 139.410156 93.101562 139.730469 C 92.859375 139.855469 92.578125 139.914062 92.277344 139.902344 L 91.722656 139.882812 L 90.988281 140.695312 C 90.863281 140.835938 90.683594 140.914062 90.496094 140.914062 " fill-opacity="1" fill-rule="nonzero"/><path fill="#ffffff" d="M 82.011719 132.457031 C 82.011719 132.457031 81.738281 127.871094 79.683594 128.453125 C 77.628906 129.03125 78.058594 134.066406 82.011719 132.457031 " fill-opacity="1" fill-rule="nonzero"/><path fill="#000000" d="M 314.007812 367.164062 C 313.742188 367.164062 313.492188 367.007812 313.390625 366.75 C 313.257812 366.410156 313.425781 366.023438 313.761719 365.890625 C 336.324219 356.984375 355.964844 345.328125 370.554688 332.1875 C 370.828125 331.945312 371.246094 331.964844 371.492188 332.238281 C 371.734375 332.507812 371.714844 332.925781 371.441406 333.171875 C 356.734375 346.417969 336.957031 358.15625 314.246094 367.121094 C 314.167969 367.152344 314.085938 367.164062 314.007812 367.164062 " fill-opacity="1" fill-rule="nonzero"/><path fill="#000000" d="M 165.1875 31.066406 C 164.902344 31.066406 164.640625 30.878906 164.554688 30.59375 C 164.449219 30.242188 164.648438 29.875 165 29.769531 C 195.394531 20.707031 229.238281 18.402344 257.855469 23.445312 C 258.214844 23.507812 258.453125 23.851562 258.390625 24.214844 C 258.328125 24.570312 257.988281 24.8125 257.625 24.75 C 229.203125 19.738281 195.582031 22.03125 165.375 31.039062 C 165.3125 31.054688 165.25 31.066406 165.1875 31.066406 " fill-opacity="1" fill-rule="nonzero"/><path fill="#000000" d="M 325.910156 73.632812 C 325.597656 73.632812 325.320312 73.414062 325.257812 73.09375 C 324.433594 68.746094 322.722656 64.722656 319.703125 60.042969 C 313.96875 51.152344 305.785156 43.628906 295.378906 37.6875 C 295.0625 37.503906 294.953125 37.101562 295.132812 36.78125 C 295.316406 36.464844 295.722656 36.355469 296.035156 36.535156 C 306.625 42.585938 314.964844 50.253906 320.816406 59.328125 C 323.929688 64.15625 325.703125 68.328125 326.558594 72.847656 C 326.625 73.207031 326.390625 73.554688 326.03125 73.621094 C 325.992188 73.628906 325.949219 73.632812 325.910156 73.632812 " fill-opacity="1" fill-rule="nonzero"/><path fill="#000000" d="M 241 319.304688 L 241.003906 319.304688 Z M 237.78125 315.128906 C 236.667969 315.128906 235.613281 315.78125 235.160156 316.871094 C 234.871094 317.570312 234.867188 318.339844 235.15625 319.039062 C 235.441406 319.738281 235.984375 320.285156 236.683594 320.574219 C 238.125 321.175781 239.789062 320.492188 240.390625 319.050781 C 240.988281 317.609375 240.308594 315.945312 238.863281 315.34375 C 238.511719 315.199219 238.140625 315.128906 237.78125 315.128906 Z M 237.769531 322.117188 C 237.234375 322.117188 236.695312 322.011719 236.175781 321.796875 C 235.152344 321.367188 234.355469 320.566406 233.933594 319.542969 C 233.511719 318.515625 233.511719 317.386719 233.9375 316.363281 C 234.820312 314.246094 237.261719 313.242188 239.375 314.125 C 241.488281 315.007812 242.492188 317.445312 241.609375 319.558594 C 240.945312 321.152344 239.394531 322.117188 237.769531 322.117188 " fill-opacity="1" fill-rule="nonzero"/><path fill="#caddff" d="M 117.097656 22.726562 C 116.355469 24.507812 114.308594 25.351562 112.527344 24.609375 C 110.746094 23.867188 109.90625 21.820312 110.648438 20.039062 C 111.390625 18.257812 113.4375 17.414062 115.214844 18.160156 C 117 18.902344 117.839844 20.949219 117.097656 22.726562 " fill-opacity="1" fill-rule="nonzero"/><path fill="#000000" d="M 366.992188 56.980469 L 366.996094 56.980469 Z M 363.769531 52.800781 C 362.660156 52.800781 361.605469 53.457031 361.152344 54.542969 C 360.550781 55.984375 361.234375 57.648438 362.675781 58.25 C 364.121094 58.851562 365.78125 58.164062 366.378906 56.722656 C 366.671875 56.027344 366.671875 55.257812 366.386719 54.558594 C 366.097656 53.859375 365.554688 53.3125 364.855469 53.019531 C 364.5 52.871094 364.132812 52.800781 363.769531 52.800781 Z M 363.757812 59.789062 C 363.230469 59.789062 362.6875 59.6875 362.167969 59.46875 C 360.050781 58.589844 359.050781 56.148438 359.929688 54.035156 C 360.8125 51.917969 363.25 50.917969 365.367188 51.800781 C 366.390625 52.226562 367.1875 53.023438 367.609375 54.054688 C 368.03125 55.078125 368.027344 56.210938 367.601562 57.234375 C 366.9375 58.828125 365.386719 59.789062 363.757812 59.789062 " fill-opacity="1" fill-rule="nonzero"/><path fill="#ffffff" d="M 227.980469 32.273438 C 227.617188 32.273438 227.25 32.347656 226.902344 32.492188 C 226.203125 32.777344 225.65625 33.320312 225.367188 34.019531 C 224.765625 35.460938 225.449219 37.121094 226.890625 37.722656 C 227.589844 38.015625 228.355469 38.015625 229.058594 37.726562 C 229.757812 37.4375 230.300781 36.898438 230.59375 36.199219 C 230.882812 35.5 230.886719 34.730469 230.597656 34.03125 C 230.308594 33.332031 229.765625 32.785156 229.070312 32.496094 C 228.71875 32.347656 228.351562 32.273438 227.980469 32.273438 Z M 227.980469 39.265625 C 227.4375 39.265625 226.898438 39.160156 226.378906 38.941406 C 224.265625 38.0625 223.261719 35.625 224.144531 33.507812 C 224.570312 32.484375 225.371094 31.6875 226.398438 31.265625 C 227.425781 30.84375 228.554688 30.84375 229.578125 31.273438 C 230.601562 31.699219 231.398438 32.5 231.824219 33.527344 C 232.246094 34.554688 232.242188 35.683594 231.8125 36.707031 C 231.386719 37.730469 230.585938 38.527344 229.5625 38.949219 C 229.050781 39.164062 228.515625 39.265625 227.980469 39.265625 " fill-opacity="1" fill-rule="nonzero"/><path fill="#ffffff" d="M 127.234375 325.722656 C 126.546875 325.722656 125.859375 325.582031 125.207031 325.3125 C 122.527344 324.195312 121.257812 321.105469 122.375 318.429688 C 123.046875 316.8125 124.476562 315.640625 126.195312 315.292969 C 126.550781 315.222656 126.902344 315.453125 126.972656 315.8125 C 127.046875 316.167969 126.8125 316.519531 126.457031 316.589844 C 125.167969 316.847656 124.097656 317.726562 123.59375 318.9375 C 122.757812 320.941406 123.710938 323.253906 125.714844 324.09375 C 126.6875 324.496094 127.757812 324.5 128.730469 324.097656 C 129.707031 323.699219 130.464844 322.941406 130.871094 321.972656 C 131.171875 321.242188 131.253906 320.449219 131.097656 319.679688 C 131.023438 319.320312 131.257812 318.972656 131.613281 318.898438 C 131.972656 318.828125 132.320312 319.058594 132.394531 319.417969 C 132.601562 320.449219 132.496094 321.507812 132.089844 322.480469 C 131.550781 323.777344 130.535156 324.785156 129.234375 325.320312 C 128.589844 325.589844 127.910156 325.722656 127.234375 325.722656 " fill-opacity="1" fill-rule="nonzero"/><path fill="#000000" d="M 257.207031 328.425781 C 256.6875 328.425781 256.171875 328.527344 255.675781 328.734375 C 254.679688 329.140625 253.90625 329.914062 253.492188 330.90625 C 253.078125 331.898438 253.074219 332.992188 253.484375 333.988281 C 253.894531 334.980469 254.664062 335.757812 255.65625 336.171875 C 256.648438 336.585938 257.746094 336.589844 258.738281 336.175781 C 259.734375 335.769531 260.511719 334.996094 260.921875 334.003906 C 261.335938 333.011719 261.339844 331.917969 260.929688 330.921875 C 260.519531 329.929688 259.75 329.15625 258.757812 328.742188 C 258.257812 328.535156 257.730469 328.425781 257.207031 328.425781 Z M 257.207031 337.808594 C 256.511719 337.808594 255.8125 337.667969 255.148438 337.390625 C 253.832031 336.84375 252.804688 335.8125 252.261719 334.488281 C 251.71875 333.171875 251.722656 331.714844 252.269531 330.398438 C 252.820312 329.078125 253.851562 328.054688 255.171875 327.511719 C 256.492188 326.964844 257.945312 326.96875 259.265625 327.519531 C 260.585938 328.070312 261.609375 329.101562 262.152344 330.421875 C 262.695312 331.742188 262.695312 333.195312 262.144531 334.515625 C 261.59375 335.832031 260.5625 336.859375 259.242188 337.402344 C 258.585938 337.671875 257.894531 337.808594 257.207031 337.808594 " fill-opacity="1" fill-rule="nonzero"/><path fill="#fbb460" d="M 146.527344 216.914062 C 146.46875 216.914062 146.40625 216.90625 146.34375 216.886719 L 143.578125 216.101562 C 143.226562 216.003906 143.023438 215.636719 143.121094 215.285156 C 143.222656 214.933594 143.585938 214.730469 143.941406 214.832031 L 146.707031 215.617188 C 147.058594 215.714844 147.261719 216.082031 147.164062 216.433594 C 147.078125 216.722656 146.816406 216.914062 146.527344 216.914062 " fill-opacity="1" fill-rule="nonzero"/><path fill="#fbb460" d="M 136.84375 214.164062 C 136.78125 214.164062 136.722656 214.15625 136.660156 214.140625 L 133.894531 213.355469 C 133.542969 213.253906 133.339844 212.886719 133.4375 212.535156 C 133.539062 212.183594 133.902344 211.984375 134.253906 212.082031 L 137.023438 212.867188 C 137.375 212.964844 137.578125 213.332031 137.476562 213.683594 C 137.394531 213.972656 137.128906 214.164062 136.84375 214.164062 " fill-opacity="1" fill-rule="nonzero"/><path fill="#fbb460" d="M 141.261719 211.679688 C 141.203125 211.679688 141.144531 211.671875 141.085938 211.65625 C 140.734375 211.558594 140.527344 211.195312 140.625 210.84375 L 141.394531 208.070312 C 141.492188 207.71875 141.855469 207.515625 142.207031 207.609375 C 142.558594 207.710938 142.765625 208.074219 142.667969 208.425781 L 141.898438 211.195312 C 141.820312 211.488281 141.550781 211.679688 141.261719 211.679688 " fill-opacity="1" fill-rule="nonzero"/><path fill="#fbb460" d="M 138.570312 221.382812 C 138.511719 221.382812 138.449219 221.375 138.390625 221.355469 C 138.039062 221.261719 137.835938 220.894531 137.929688 220.542969 L 138.699219 217.773438 C 138.800781 217.421875 139.164062 217.214844 139.515625 217.308594 C 139.867188 217.410156 140.074219 217.773438 139.976562 218.125 L 139.207031 220.898438 C 139.125 221.191406 138.859375 221.382812 138.570312 221.382812 " fill-opacity="1" fill-rule="nonzero"/><path fill="#000000" d="M 286.011719 335.863281 C 285.75 335.863281 285.503906 335.707031 285.398438 335.449219 L 284.308594 332.789062 C 284.171875 332.449219 284.335938 332.0625 284.671875 331.925781 C 285.011719 331.785156 285.398438 331.949219 285.535156 332.289062 L 286.621094 334.949219 C 286.761719 335.289062 286.597656 335.675781 286.257812 335.8125 C 286.179688 335.847656 286.09375 335.863281 286.011719 335.863281 " fill-opacity="1" fill-rule="nonzero"/><path fill="#000000" d="M 282.203125 326.542969 C 281.945312 326.542969 281.699219 326.386719 281.589844 326.132812 L 280.503906 323.46875 C 280.367188 323.128906 280.527344 322.742188 280.867188 322.605469 C 281.207031 322.464844 281.589844 322.628906 281.730469 322.96875 L 282.816406 325.628906 C 282.957031 325.96875 282.792969 326.355469 282.453125 326.492188 C 282.371094 326.527344 282.289062 326.542969 282.203125 326.542969 " fill-opacity="1" fill-rule="nonzero"/><path fill="#000000" d="M 286.886719 328.492188 C 286.625 328.492188 286.378906 328.339844 286.273438 328.085938 C 286.132812 327.75 286.292969 327.359375 286.632812 327.222656 L 289.289062 326.117188 C 289.625 325.980469 290.011719 326.140625 290.152344 326.476562 C 290.292969 326.8125 290.132812 327.203125 289.792969 327.339844 L 287.136719 328.441406 C 287.054688 328.476562 286.96875 328.492188 286.886719 328.492188 " fill-opacity="1" fill-rule="nonzero"/><path fill="#000000" d="M 277.585938 332.351562 C 277.328125 332.351562 277.082031 332.199219 276.972656 331.941406 C 276.835938 331.605469 276.996094 331.21875 277.332031 331.078125 L 279.988281 329.976562 C 280.324219 329.835938 280.714844 329.996094 280.851562 330.335938 C 280.992188 330.671875 280.832031 331.058594 280.496094 331.199219 L 277.839844 332.300781 C 277.753906 332.335938 277.667969 332.351562 277.585938 332.351562 " fill-opacity="1" fill-rule="nonzero"/><path fill="#000000" d="M 359.152344 39.242188 C 359.066406 39.242188 358.976562 39.226562 358.894531 39.191406 L 356.246094 38.078125 C 355.90625 37.9375 355.746094 37.546875 355.890625 37.210938 C 356.03125 36.875 356.417969 36.714844 356.753906 36.855469 L 359.40625 37.972656 C 359.742188 38.117188 359.902344 38.5 359.761719 38.839844 C 359.652344 39.09375 359.410156 39.242188 359.152344 39.242188 " fill-opacity="1" fill-rule="nonzero"/><path fill="#000000" d="M 349.871094 35.34375 C 349.78125 35.34375 349.695312 35.328125 349.613281 35.292969 L 346.960938 34.179688 C 346.625 34.035156 346.464844 33.648438 346.609375 33.3125 C 346.75 32.976562 347.136719 32.816406 347.472656 32.957031 L 350.125 34.074219 C 350.460938 34.214844 350.621094 34.601562 350.480469 34.941406 C 350.371094 35.191406 350.128906 35.34375 349.871094 35.34375 " fill-opacity="1" fill-rule="nonzero"/><path fill="#000000" d="M 354.558594 33.414062 C 354.476562 33.414062 354.390625 33.398438 354.308594 33.363281 C 353.96875 33.222656 353.808594 32.835938 353.949219 32.5 L 355.046875 29.839844 C 355.1875 29.503906 355.574219 29.34375 355.910156 29.480469 C 356.246094 29.625 356.410156 30.007812 356.269531 30.347656 L 355.167969 33.003906 C 355.066406 33.257812 354.816406 33.414062 354.558594 33.414062 " fill-opacity="1" fill-rule="nonzero"/><path fill="#000000" d="M 350.710938 42.714844 C 350.625 42.714844 350.542969 42.703125 350.460938 42.667969 C 350.121094 42.527344 349.960938 42.140625 350.097656 41.800781 L 351.199219 39.144531 C 351.339844 38.804688 351.722656 38.644531 352.0625 38.785156 C 352.402344 38.925781 352.5625 39.3125 352.421875 39.648438 L 351.320312 42.308594 C 351.21875 42.5625 350.96875 42.714844 350.710938 42.714844 " fill-opacity="1" fill-rule="nonzero"/><path fill="#000000" d="M 72.644531 106.222656 C 72.347656 106.222656 72.078125 106.023438 72.003906 105.722656 L 69.417969 95.378906 C 69.332031 95.023438 69.546875 94.664062 69.898438 94.578125 C 70.253906 94.488281 70.613281 94.703125 70.703125 95.058594 L 73.289062 105.398438 C 73.375 105.753906 73.160156 106.113281 72.804688 106.203125 C 72.753906 106.214844 72.699219 106.222656 72.644531 106.222656 " fill-opacity="1" fill-rule="nonzero"/><path fill="#000000" d="M 78.105469 108.804688 C 77.753906 108.804688 77.460938 108.53125 77.445312 108.179688 L 76.441406 88.066406 C 76.421875 87.703125 76.703125 87.390625 77.066406 87.375 C 77.429688 87.355469 77.742188 87.632812 77.761719 88 L 78.765625 108.109375 C 78.785156 108.476562 78.503906 108.789062 78.136719 108.804688 C 78.125 108.804688 78.117188 108.804688 78.105469 108.804688 " fill-opacity="1" fill-rule="nonzero"/><path fill="#000000" d="M 83.851562 104.304688 C 83.820312 104.304688 83.785156 104.300781 83.75 104.296875 C 83.390625 104.242188 83.140625 103.902344 83.199219 103.542969 L 84.15625 97.316406 C 84.210938 96.957031 84.550781 96.707031 84.910156 96.765625 C 85.269531 96.820312 85.519531 97.15625 85.460938 97.519531 L 84.503906 103.742188 C 84.453125 104.070312 84.171875 104.304688 83.851562 104.304688 " fill-opacity="1" fill-rule="nonzero"/><g clip-path="url(#4e4aa2b902)"><path fill="#fbb460" d="M 17.296875 5.859375 C 17.269531 5.753906 17.171875 5.691406 17.066406 5.714844 C 16.996094 5.730469 16.941406 5.789062 16.925781 5.859375 C 16.589844 7.113281 15.761719 9.433594 13.941406 10.851562 C 12.675781 11.835938 11.195312 12.515625 9.625 12.835938 C 9.519531 12.855469 9.449219 12.953125 9.472656 13.058594 C 9.488281 13.132812 9.539062 13.183594 9.609375 13.207031 C 10.882812 13.5625 13.105469 14.34375 14.230469 15.667969 C 15.117188 16.714844 15.910156 19.335938 16.253906 20.617188 C 16.285156 20.71875 16.390625 20.78125 16.488281 20.75 C 16.554688 20.734375 16.605469 20.679688 16.621094 20.617188 C 16.976562 19.3125 17.898438 16.617188 19.621094 15.472656 C 21.160156 14.445312 22.871094 13.933594 23.839844 13.703125 C 23.941406 13.675781 24 13.574219 23.976562 13.46875 C 23.960938 13.40625 23.910156 13.351562 23.847656 13.335938 C 22.683594 12.992188 20.511719 12.210938 19.621094 11.042969 C 18.238281 9.234375 17.578125 7.050781 17.296875 5.859375 Z M 26.972656 16.613281 C 26.957031 16.550781 26.894531 16.515625 26.832031 16.53125 C 26.789062 16.539062 26.757812 16.570312 26.75 16.613281 C 26.542969 17.382812 26.035156 18.800781 24.921875 19.664062 C 24.148438 20.265625 23.242188 20.679688 22.277344 20.875 C 22.214844 20.882812 22.175781 20.949219 22.191406 21.011719 C 22.199219 21.050781 22.230469 21.089844 22.273438 21.097656 C 23.054688 21.320312 24.414062 21.789062 25.101562 22.601562 C 25.644531 23.238281 26.125 24.847656 26.339844 25.632812 C 26.355469 25.695312 26.425781 25.730469 26.480469 25.714844 C 26.523438 25.703125 26.550781 25.671875 26.566406 25.632812 C 26.785156 24.835938 27.34375 23.1875 28.398438 22.484375 C 29.339844 21.859375 30.386719 21.542969 30.976562 21.402344 C 31.039062 21.386719 31.078125 21.324219 31.0625 21.261719 C 31.050781 21.21875 31.019531 21.1875 30.984375 21.175781 C 30.265625 20.964844 28.941406 20.492188 28.398438 19.773438 C 27.550781 18.679688 27.148438 17.347656 26.972656 16.613281 Z M 30.800781 7.863281 C 30.789062 7.820312 30.746094 7.792969 30.707031 7.804688 C 30.679688 7.808594 30.660156 7.832031 30.648438 7.863281 C 30.511719 8.375 30.175781 9.3125 29.433594 9.886719 C 28.921875 10.285156 28.320312 10.5625 27.679688 10.695312 C 27.636719 10.703125 27.613281 10.742188 27.617188 10.78125 C 27.621094 10.8125 27.644531 10.835938 27.675781 10.839844 C 28.191406 10.988281 29.09375 11.300781 29.554688 11.839844 C 29.914062 12.265625 30.234375 13.332031 30.375 13.851562 C 30.386719 13.890625 30.429688 13.914062 30.46875 13.902344 C 30.496094 13.898438 30.515625 13.875 30.523438 13.851562 C 30.667969 13.320312 31.039062 12.226562 31.742188 11.761719 C 32.363281 11.34375 33.0625 11.140625 33.457031 11.042969 C 33.5 11.035156 33.527344 10.992188 33.515625 10.949219 C 33.511719 10.925781 33.488281 10.902344 33.464844 10.894531 C 32.988281 10.75 32.109375 10.4375 31.746094 9.960938 C 31.1875 9.234375 30.914062 8.347656 30.800781 7.863281 Z M 30.800781 7.863281 " fill-opacity="1" fill-rule="nonzero"/></g></svg>